<?xml version="1.0" encoding="UTF-8"?>
<!DOCTYPE svg PUBLIC "-//W3C//DTD SVG 1.1//EN"
    "http://www.w3.org/Graphics/SVG/1.1/DTD/svg11.dtd"><svg height="600.0000" xmlns="http://www.w3.org/2000/svg" version="1.1" font-size="1" viewBox="0.0 0.0 800.0 600.0" width="800.0000" stroke-opacity="1" xmlns:xlink="http://www.w3.org/1999/xlink" stroke="rgb(0,0,0)"><defs></defs><g stroke-width="0.0" fill-opacity="1.0" fill="rgb(255,255,255)" stroke-linecap="butt" stroke-linejoin="bevel" stroke-opacity="0.0" stroke-miterlimit="10.0" stroke="rgb(0,0,0)"><path d="M 0.0000,0.0000 v 600.0000 h 800.0000 v -600.0000 Z"/></g><g stroke-width="0.0" fill-opacity="1.0" fill="rgb(0,0,0)" stroke-linecap="butt" stroke-linejoin="bevel" stroke-opacity="0.0" stroke-miterlimit="10.0" stroke="rgb(0,0,0)"><path d="M 310.0000,14.1016 ZM 311.0010,3.3060 h 2.2639 v 2.6489 l -0.0616,1.1704 c 0.4466,-0.4004 0.9625,-0.6237 0.9625 -0.6237c 0.5159,-0.2233 1.0549,-0.2233 1.0549 -0.2233c 0.6930,0.0000 1.2474,0.2772 1.2474 0.2772c 0.5544,0.2772 0.9471,0.7777 0.9471 0.7777c 0.3927,0.5005 0.6006,1.2166 0.6006 1.2166c 0.2079,0.7161 0.2079,1.5939 0.2079 1.5939c 0.0000,0.9856 -0.2695,1.7556 -0.2695 1.7556c -0.2695,0.7700 -0.7238,1.3013 -0.7238 1.3013c -0.4543,0.5313 -1.0318,0.8085 -1.0318 0.8085c -0.5775,0.2772 -1.1935,0.2772 -1.1935 0.2772c -0.5082,-0.0000 -1.0241,-0.2464 -1.0241 -0.2464c -0.5159,-0.2464 -0.9625,-0.7392 -0.9625 -0.7392h -0.0616 l -0.1848,0.8008 h -1.7710 v -10.7957 ZM 311.0010,3.3060 ZM 313.2649,11.9456 c 0.3080,0.2772 0.6160,0.3850 0.6160 0.3850c 0.3080,0.1078 0.6006,0.1078 0.6006 0.1078c 0.5852,0.0000 1.0010,-0.5313 1.0010 -0.5313c 0.4158,-0.5313 0.4158,-1.7171 0.4158 -1.7171c 0.0000,-2.0637 -1.3244,-2.0637 -1.3244 -2.0637c -0.6776,-0.0000 -1.3090,0.6930 -1.3090 0.6930v 3.1263 ZM 318.8244,14.1016 ZM 320.9497,5.3388 c -0.5698,-0.0000 -0.9394,-0.3311 -0.9394 -0.3311c -0.3696,-0.3311 -0.3696,-0.8547 -0.3696 -0.8547c 0.0000,-0.5236 0.3696,-0.8470 0.3696 -0.8470c 0.3696,-0.3234 0.9394,-0.3234 0.9394 -0.3234c 0.5852,0.0000 0.9471,0.3234 0.9471 0.3234c 0.3619,0.3234 0.3619,0.8470 0.3619 0.8470c 0.0000,0.5236 -0.3619,0.8547 -0.3619 0.8547c -0.3619,0.3311 -0.9471,0.3311 -0.9471 0.3311ZM 320.9497,5.3388 ZM 319.8255,6.4630 h 2.2639 v 7.6386 h -2.2639 v -7.6386 ZM 323.0749,14.1016 ZM 324.0760,6.4630 h 1.8480 l 0.1540,0.9702 h 0.0616 c 0.4928,-0.4620 1.0780,-0.8085 1.0780 -0.8085c 0.5852,-0.3465 1.3706,-0.3465 1.3706 -0.3465c 1.2474,0.0000 1.8095,0.8162 1.8095 0.8162c 0.5621,0.8162 0.5621,2.2639 0.5621 2.2639v 4.7433 h -2.2639 v -4.4507 c 0.0000,-0.8316 -0.2233,-1.1396 -0.2233 -1.1396c -0.2233,-0.3080 -0.7161,-0.3080 -0.7161 -0.3080c -0.4312,-0.0000 -0.7392,0.1925 -0.7392 0.1925c -0.3080,0.1925 -0.6776,0.5467 -0.6776 0.5467v 5.1591 h -2.2639 v -7.6386 ZM 331.8840,14.1016 ZM 332.6078,11.9764 c 0.0000,-1.2012 1.0164,-1.8789 1.0164 -1.8789c 1.0164,-0.6776 3.2803,-0.9086 3.2803 -0.9086c -0.0308,-0.5082 -0.3080,-0.8085 -0.3080 -0.8085c -0.2772,-0.3003 -0.8932,-0.3003 -0.8932 -0.3003c -0.4928,-0.0000 -0.9856,0.1848 -0.9856 0.1848c -0.4928,0.1848 -1.0472,0.5082 -1.0472 0.5082l -0.8008,-1.4938 c 0.7392,-0.4466 1.5477,-0.7238 1.5477 -0.7238c 0.8085,-0.2772 1.7171,-0.2772 1.7171 -0.2772c 1.4784,0.0000 2.2562,0.8393 2.2562 0.8393c 0.7777,0.8393 0.7777,2.6104 0.7777 2.6104v 4.3737 h -1.8480 l -0.1694,-0.7854 h -0.0462 c -0.4928,0.4312 -1.0395,0.7007 -1.0395 0.7007c -0.5467,0.2695 -1.1935,0.2695 -1.1935 0.2695c -0.5236,-0.0000 -0.9394,-0.1771 -0.9394 -0.1771c -0.4158,-0.1771 -0.7084,-0.4928 -0.7084 -0.4928c -0.2926,-0.3157 -0.4543,-0.7315 -0.4543 -0.7315c -0.1617,-0.4158 -0.1617,-0.9086 -0.1617 -0.9086ZM 332.6078,11.9764 ZM 334.7639,11.8070 c 0.0000,0.3696 0.2387,0.5467 0.2387 0.5467c 0.2387,0.1771 0.6391,0.1771 0.6391 0.1771c 0.4004,0.0000 0.6776,-0.1694 0.6776 -0.1694c 0.2772,-0.1694 0.5852,-0.4774 0.5852 -0.4774v -1.3398 c -1.2166,0.1694 -1.6786,0.4928 -1.6786 0.4928c -0.4620,0.3234 -0.4620,0.7700 -0.4620 0.7700ZM 340.1078,14.1016 ZM 341.1088,6.4630 h 1.8480 l 0.1540,1.3398 h 0.0616 c 0.4158,-0.7854 1.0010,-1.1550 1.0010 -1.1550c 0.5852,-0.3696 1.1704,-0.3696 1.1704 -0.3696c 0.3234,0.0000 0.5313,0.0385 0.5313 0.0385c 0.2079,0.0385 0.3773,0.1155 0.3773 0.1155l -0.3696,1.9559 c -0.2156,-0.0616 -0.4004,-0.0924 -0.4004 -0.0924c -0.1848,-0.0308 -0.4312,-0.0308 -0.4312 -0.0308c -0.4312,-0.0000 -0.9009,0.3080 -0.9009 0.3080c -0.4697,0.3080 -0.7777,1.0934 -0.7777 1.0934v 4.4353 h -2.2639 v -7.6386 ZM 346.3142,14.1016 ZM 347.4846,15.2105 c 0.1078,0.0308 0.2464,0.0616 0.2464 0.0616c 0.1386,0.0308 0.2618,0.0308 0.2618 0.0308c 0.5698,0.0000 0.8778,-0.2772 0.8778 -0.2772c 0.3080,-0.2772 0.4620,-0.7238 0.4620 -0.7238l 0.1078,-0.4004 l -2.9415,-7.4384 h 2.2793 l 1.0934,3.2803 c 0.1694,0.5236 0.3080,1.0626 0.3080 1.0626c 0.1386,0.5390 0.2926,1.1088 0.2926 1.1088h 0.0616 c 0.1232,-0.5390 0.2541,-1.0857 0.2541 -1.0857c 0.1309,-0.5467 0.2695,-1.0857 0.2695 -1.0857l 0.9240,-3.2803 h 2.1715 l -2.6489,7.7156 c -0.2772,0.7238 -0.5775,1.2705 -0.5775 1.2705c -0.3003,0.5467 -0.6930,0.9086 -0.6930 0.9086c -0.3927,0.3619 -0.8932,0.5467 -0.8932 0.5467c -0.5005,0.1848 -1.1781,0.1848 -1.1781 0.1848c -0.3542,-0.0000 -0.6006,-0.0385 -0.6006 -0.0385c -0.2464,-0.0385 -0.4774,-0.1155 -0.4774 -0.1155l 0.4004,-1.7248 h 0.0000 ZM 357.5411,14.1016 ZM 358.1417,10.2823 c 0.0000,-0.9394 0.2695,-1.6786 0.2695 -1.6786c 0.2695,-0.7392 0.7084,-1.2551 0.7084 -1.2551c 0.4389,-0.5159 1.0164,-0.7931 1.0164 -0.7931c 0.5775,-0.2772 1.1781,-0.2772 1.1781 -0.2772c 0.6468,0.0000 1.0626,0.2156 1.0626 0.2156c 0.4158,0.2156 0.8162,0.5852 0.8162 0.5852l -0.0924,-1.1704 v -2.6027 h 2.2639 v 10.7957 h -1.8480 l -0.1540,-0.7546 h -0.0616 c -0.4004,0.4004 -0.9394,0.6699 -0.9394 0.6699c -0.5390,0.2695 -1.0934,0.2695 -1.0934 0.2695c -0.7084,-0.0000 -1.2859,-0.2772 -1.2859 -0.2772c -0.5775,-0.2772 -0.9856,-0.7931 -0.9856 -0.7931c -0.4081,-0.5159 -0.6314,-1.2551 -0.6314 -1.2551c -0.2233,-0.7392 -0.2233,-1.6786 -0.2233 -1.6786ZM 358.1417,10.2823 ZM 360.4671,10.2515 c 0.0000,1.1396 0.3619,1.6632 0.3619 1.6632c 0.3619,0.5236 1.0241,0.5236 1.0241 0.5236c 0.3696,0.0000 0.6699,-0.1540 0.6699 -0.1540c 0.3003,-0.1540 0.5775,-0.5390 0.5775 -0.5390v -3.1263 c -0.3080,-0.2772 -0.6314,-0.3850 -0.6314 -0.3850c -0.3234,-0.1078 -0.6314,-0.1078 -0.6314 -0.1078c -0.5390,-0.0000 -0.9548,0.5159 -0.9548 0.5159c -0.4158,0.5159 -0.4158,1.6093 -0.4158 1.6093ZM 366.3655,14.1016 ZM 367.0893,11.9764 c 0.0000,-1.2012 1.0164,-1.8789 1.0164 -1.8789c 1.0164,-0.6776 3.2803,-0.9086 3.2803 -0.9086c -0.0308,-0.5082 -0.3080,-0.8085 -0.3080 -0.8085c -0.2772,-0.3003 -0.8932,-0.3003 -0.8932 -0.3003c -0.4928,-0.0000 -0.9856,0.1848 -0.9856 0.1848c -0.4928,0.1848 -1.0472,0.5082 -1.0472 0.5082l -0.8008,-1.4938 c 0.7392,-0.4466 1.5477,-0.7238 1.5477 -0.7238c 0.8085,-0.2772 1.7171,-0.2772 1.7171 -0.2772c 1.4784,0.0000 2.2562,0.8393 2.2562 0.8393c 0.7777,0.8393 0.7777,2.6104 0.7777 2.6104v 4.3737 h -1.8480 l -0.1694,-0.7854 h -0.0462 c -0.4928,0.4312 -1.0395,0.7007 -1.0395 0.7007c -0.5467,0.2695 -1.1935,0.2695 -1.1935 0.2695c -0.5236,-0.0000 -0.9394,-0.1771 -0.9394 -0.1771c -0.4158,-0.1771 -0.7084,-0.4928 -0.7084 -0.4928c -0.2926,-0.3157 -0.4543,-0.7315 -0.4543 -0.7315c -0.1617,-0.4158 -0.1617,-0.9086 -0.1617 -0.9086ZM 367.0893,11.9764 ZM 369.2454,11.8070 c 0.0000,0.3696 0.2387,0.5467 0.2387 0.5467c 0.2387,0.1771 0.6391,0.1771 0.6391 0.1771c 0.4004,0.0000 0.6776,-0.1694 0.6776 -0.1694c 0.2772,-0.1694 0.5852,-0.4774 0.5852 -0.4774v -1.3398 c -1.2166,0.1694 -1.6786,0.4928 -1.6786 0.4928c -0.4620,0.3234 -0.4620,0.7700 -0.4620 0.7700ZM 374.5893,14.1016 ZM 375.8984,8.2341 h -1.0472 v -1.6786 l 1.1704,-0.0924 l 0.2618,-2.0329 h 1.8789 v 2.0329 h 1.8326 v 1.7710 h -1.8326 v 3.0647 c 0.0000,0.6468 0.2695,0.9317 0.2695 0.9317c 0.2695,0.2849 0.7161,0.2849 0.7161 0.2849c 0.1848,0.0000 0.3773,-0.0462 0.3773 -0.0462c 0.1925,-0.0462 0.3465,-0.1078 0.3465 -0.1078l 0.3542,1.6478 c -0.3080,0.0924 -0.7238,0.1848 -0.7238 0.1848c -0.4158,0.0924 -0.9702,0.0924 -0.9702 0.0924c -0.7084,-0.0000 -1.2089,-0.2156 -1.2089 -0.2156c -0.5005,-0.2156 -0.8162,-0.6006 -0.8162 -0.6006c -0.3157,-0.3850 -0.4620,-0.9317 -0.4620 -0.9317c -0.1463,-0.5467 -0.1463,-1.2089 -0.1463 -1.2089v -3.0955 ZM 380.3029,14.1016 ZM 381.0267,11.9764 c 0.0000,-1.2012 1.0164,-1.8789 1.0164 -1.8789c 1.0164,-0.6776 3.2803,-0.9086 3.2803 -0.9086c -0.0308,-0.5082 -0.3080,-0.8085 -0.3080 -0.8085c -0.2772,-0.3003 -0.8932,-0.3003 -0.8932 -0.3003c -0.4928,-0.0000 -0.9856,0.1848 -0.9856 0.1848c -0.4928,0.1848 -1.0472,0.5082 -1.0472 0.5082l -0.8008,-1.4938 c 0.7392,-0.4466 1.5477,-0.7238 1.5477 -0.7238c 0.8085,-0.2772 1.7171,-0.2772 1.7171 -0.2772c 1.4784,0.0000 2.2562,0.8393 2.2562 0.8393c 0.7777,0.8393 0.7777,2.6104 0.7777 2.6104v 4.3737 h -1.8480 l -0.1694,-0.7854 h -0.0462 c -0.4928,0.4312 -1.0395,0.7007 -1.0395 0.7007c -0.5467,0.2695 -1.1935,0.2695 -1.1935 0.2695c -0.5236,-0.0000 -0.9394,-0.1771 -0.9394 -0.1771c -0.4158,-0.1771 -0.7084,-0.4928 -0.7084 -0.4928c -0.2926,-0.3157 -0.4543,-0.7315 -0.4543 -0.7315c -0.1617,-0.4158 -0.1617,-0.9086 -0.1617 -0.9086ZM 381.0267,11.9764 ZM 383.1828,11.8070 c 0.0000,0.3696 0.2387,0.5467 0.2387 0.5467c 0.2387,0.1771 0.6391,0.1771 0.6391 0.1771c 0.4004,0.0000 0.6776,-0.1694 0.6776 -0.1694c 0.2772,-0.1694 0.5852,-0.4774 0.5852 -0.4774v -1.3398 c -1.2166,0.1694 -1.6786,0.4928 -1.6786 0.4928c -0.4620,0.3234 -0.4620,0.7700 -0.4620 0.7700ZM 391.7300,14.1016 ZM 393.0390,8.2341 h -1.0472 v -1.6786 l 1.1704,-0.0924 l 0.2618,-2.0329 h 1.8789 v 2.0329 h 1.8326 v 1.7710 h -1.8326 v 3.0647 c 0.0000,0.6468 0.2695,0.9317 0.2695 0.9317c 0.2695,0.2849 0.7161,0.2849 0.7161 0.2849c 0.1848,0.0000 0.3773,-0.0462 0.3773 -0.0462c 0.1925,-0.0462 0.3465,-0.1078 0.3465 -0.1078l 0.3542,1.6478 c -0.3080,0.0924 -0.7238,0.1848 -0.7238 0.1848c -0.4158,0.0924 -0.9702,0.0924 -0.9702 0.0924c -0.7084,-0.0000 -1.2089,-0.2156 -1.2089 -0.2156c -0.5005,-0.2156 -0.8162,-0.6006 -0.8162 -0.6006c -0.3157,-0.3850 -0.4620,-0.9317 -0.4620 -0.9317c -0.1463,-0.5467 -0.1463,-1.2089 -0.1463 -1.2089v -3.0955 ZM 397.4743,14.1016 ZM 398.0287,10.2823 c 0.0000,-0.9548 0.3080,-1.7017 0.3080 -1.7017c 0.3080,-0.7469 0.8239,-1.2551 0.8239 -1.2551c 0.5159,-0.5082 1.1935,-0.7777 1.1935 -0.7777c 0.6776,-0.2695 1.4014,-0.2695 1.4014 -0.2695c 0.7238,0.0000 1.3937,0.2695 1.3937 0.2695c 0.6699,0.2695 1.1858,0.7777 1.1858 0.7777c 0.5159,0.5082 0.8239,1.2551 0.8239 1.2551c 0.3080,0.7469 0.3080,1.7017 0.3080 1.7017c 0.0000,0.9548 -0.3080,1.7017 -0.3080 1.7017c -0.3080,0.7469 -0.8239,1.2551 -0.8239 1.2551c -0.5159,0.5082 -1.1858,0.7777 -1.1858 0.7777c -0.6699,0.2695 -1.3937,0.2695 -1.3937 0.2695c -0.7238,-0.0000 -1.4014,-0.2695 -1.4014 -0.2695c -0.6776,-0.2695 -1.1935,-0.7777 -1.1935 -0.7777c -0.5159,-0.5082 -0.8239,-1.2551 -0.8239 -1.2551c -0.3080,-0.7469 -0.3080,-1.7017 -0.3080 -1.7017ZM 398.0287,10.2823 ZM 400.3542,10.2823 c 0.0000,1.0010 0.3465,1.5862 0.3465 1.5862c 0.3465,0.5852 1.0549,0.5852 1.0549 0.5852c 0.6930,0.0000 1.0472,-0.5852 1.0472 -0.5852c 0.3542,-0.5852 0.3542,-1.5862 0.3542 -1.5862c 0.0000,-1.0010 -0.3542,-1.5862 -0.3542 -1.5862c -0.3542,-0.5852 -1.0472,-0.5852 -1.0472 -0.5852c -0.7084,-0.0000 -1.0549,0.5852 -1.0549 0.5852c -0.3465,0.5852 -0.3465,1.5862 -0.3465 1.5862ZM 409.2248,14.1016 ZM 409.7793,10.2823 c 0.0000,-0.9548 0.3234,-1.7017 0.3234 -1.7017c 0.3234,-0.7469 0.8701,-1.2551 0.8701 -1.2551c 0.5467,-0.5082 1.2705,-0.7777 1.2705 -0.7777c 0.7238,-0.2695 1.5092,-0.2695 1.5092 -0.2695c 0.7084,0.0000 1.2782,0.2387 1.2782 0.2387c 0.5698,0.2387 0.9548,0.6391 0.9548 0.6391l -1.0318,1.4014 c -0.5390,-0.4466 -1.0626,-0.4466 -1.0626 -0.4466c -0.8316,-0.0000 -1.3090,0.5852 -1.3090 0.5852c -0.4774,0.5852 -0.4774,1.5862 -0.4774 1.5862c 0.0000,1.0010 0.4851,1.5862 0.4851 1.5862c 0.4851,0.5852 1.2243,0.5852 1.2243 0.5852c 0.4158,0.0000 0.7546,-0.1694 0.7546 -0.1694c 0.3388,-0.1694 0.6160,-0.3850 0.6160 -0.3850l 0.9086,1.4322 c -0.5544,0.4928 -1.2320,0.7238 -1.2320 0.7238c -0.6776,0.2310 -1.3090,0.2310 -1.3090 0.2310c -0.8008,-0.0000 -1.4861,-0.2695 -1.4861 -0.2695c -0.6853,-0.2695 -1.1935,-0.7777 -1.1935 -0.7777c -0.5082,-0.5082 -0.8008,-1.2551 -0.8008 -1.2551c -0.2926,-0.7469 -0.2926,-1.7017 -0.2926 -1.7017ZM 415.9856,14.1016 ZM 416.5400,10.2823 c 0.0000,-0.9548 0.3080,-1.7017 0.3080 -1.7017c 0.3080,-0.7469 0.8239,-1.2551 0.8239 -1.2551c 0.5159,-0.5082 1.1935,-0.7777 1.1935 -0.7777c 0.6776,-0.2695 1.4014,-0.2695 1.4014 -0.2695c 0.7238,0.0000 1.3937,0.2695 1.3937 0.2695c 0.6699,0.2695 1.1858,0.7777 1.1858 0.7777c 0.5159,0.5082 0.8239,1.2551 0.8239 1.2551c 0.3080,0.7469 0.3080,1.7017 0.3080 1.7017c 0.0000,0.9548 -0.3080,1.7017 -0.3080 1.7017c -0.3080,0.7469 -0.8239,1.2551 -0.8239 1.2551c -0.5159,0.5082 -1.1858,0.7777 -1.1858 0.7777c -0.6699,0.2695 -1.3937,0.2695 -1.3937 0.2695c -0.7238,-0.0000 -1.4014,-0.2695 -1.4014 -0.2695c -0.6776,-0.2695 -1.1935,-0.7777 -1.1935 -0.7777c -0.5159,-0.5082 -0.8239,-1.2551 -0.8239 -1.2551c -0.3080,-0.7469 -0.3080,-1.7017 -0.3080 -1.7017ZM 416.5400,10.2823 ZM 418.8655,10.2823 c 0.0000,1.0010 0.3465,1.5862 0.3465 1.5862c 0.3465,0.5852 1.0549,0.5852 1.0549 0.5852c 0.6930,0.0000 1.0472,-0.5852 1.0472 -0.5852c 0.3542,-0.5852 0.3542,-1.5862 0.3542 -1.5862c 0.0000,-1.0010 -0.3542,-1.5862 -0.3542 -1.5862c -0.3542,-0.5852 -1.0472,-0.5852 -1.0472 -0.5852c -0.7084,-0.0000 -1.0549,0.5852 -1.0549 0.5852c -0.3465,0.5852 -0.3465,1.5862 -0.3465 1.5862ZM 424.4559,14.1016 ZM 425.7957,11.8070 c 0.5236,0.4004 1.0010,0.6006 1.0010 0.6006c 0.4774,0.2002 0.9702,0.2002 0.9702 0.2002c 0.5082,0.0000 0.7392,-0.1694 0.7392 -0.1694c 0.2310,-0.1694 0.2310,-0.4774 0.2310 -0.4774c 0.0000,-0.1848 -0.1309,-0.3311 -0.1309 -0.3311c -0.1309,-0.1463 -0.3542,-0.2695 -0.3542 -0.2695c -0.2233,-0.1232 -0.5005,-0.2233 -0.5005 -0.2233c -0.2772,-0.1001 -0.5698,-0.2233 -0.5698 -0.2233c -0.3542,-0.1386 -0.7084,-0.3234 -0.7084 -0.3234c -0.3542,-0.1848 -0.6468,-0.4543 -0.6468 -0.4543c -0.2926,-0.2695 -0.4774,-0.6314 -0.4774 -0.6314c -0.1848,-0.3619 -0.1848,-0.8393 -0.1848 -0.8393c 0.0000,-0.5236 0.2079,-0.9702 0.2079 -0.9702c 0.2079,-0.4466 0.5929,-0.7546 0.5929 -0.7546c 0.3850,-0.3080 0.9240,-0.4851 0.9240 -0.4851c 0.5390,-0.1771 1.2012,-0.1771 1.2012 -0.1771c 0.8778,0.0000 1.5400,0.3003 1.5400 0.3003c 0.6622,0.3003 1.1550,0.6699 1.1550 0.6699l -1.0164,1.3552 c -0.4158,-0.3080 -0.8162,-0.4774 -0.8162 -0.4774c -0.4004,-0.1694 -0.8008,-0.1694 -0.8008 -0.1694c -0.8624,-0.0000 -0.8624,0.6006 -0.8624 0.6006c 0.0000,0.1848 0.1232,0.3157 0.1232 0.3157c 0.1232,0.1309 0.3311,0.2387 0.3311 0.2387c 0.2079,0.1078 0.4774,0.2079 0.4774 0.2079c 0.2695,0.1001 0.5621,0.2079 0.5621 0.2079c 0.3696,0.1386 0.7315,0.3157 0.7315 0.3157c 0.3619,0.1771 0.6622,0.4389 0.6622 0.4389c 0.3003,0.2618 0.4851,0.6391 0.4851 0.6391c 0.1848,0.3773 0.1848,0.9009 0.1848 0.9009c 0.0000,0.5236 -0.2002,0.9702 -0.2002 0.9702c -0.2002,0.4466 -0.6006,0.7777 -0.6006 0.7777c -0.4004,0.3311 -0.9856,0.5236 -0.9856 0.5236c -0.5852,0.1925 -1.3552,0.1925 -1.3552 0.1925c -0.7546,-0.0000 -1.5477,-0.2926 -1.5477 -0.2926c -0.7931,-0.2926 -1.3783,-0.7700 -1.3783 -0.7700ZM 434.4815,14.1016 ZM 439.7947,5.0616 c -0.4312,-0.1540 -0.7854,-0.1540 -0.7854 -0.1540c -0.4158,-0.0000 -0.6468,0.2541 -0.6468 0.2541c -0.2310,0.2541 -0.2310,0.8393 -0.2310 0.8393v 0.4620 h 1.3706 v 1.7710 h -1.3706 v 5.8676 h -2.2639 v -5.8676 h -1.0164 v -1.6786 l 1.0164,-0.0770 v -0.4158 c 0.0000,-0.6006 0.1463,-1.1396 0.1463 -1.1396c 0.1463,-0.5390 0.4851,-0.9394 0.4851 -0.9394c 0.3388,-0.4004 0.8778,-0.6314 0.8778 -0.6314c 0.5390,-0.2310 1.3090,-0.2310 1.3090 -0.2310c 0.4774,0.0000 0.8701,0.0924 0.8701 0.0924c 0.3927,0.0924 0.6545,0.1848 0.6545 0.1848ZM 439.6715,14.1016 ZM 440.5955,6.4630 h 2.2639 v 4.4507 c 0.0000,0.8316 0.2310,1.1396 0.2310 1.1396c 0.2310,0.3080 0.7238,0.3080 0.7238 0.3080c 0.4312,0.0000 0.7238,-0.2002 0.7238 -0.2002c 0.2926,-0.2002 0.6314,-0.6468 0.6314 -0.6468v -5.0513 h 2.2639 v 7.6386 h -1.8480 l -0.1694,-1.0626 h -0.0462 c -0.4928,0.5852 -1.0549,0.9163 -1.0549 0.9163c -0.5621,0.3311 -1.3475,0.3311 -1.3475 0.3311c -1.2474,-0.0000 -1.8095,-0.8162 -1.8095 -0.8162c -0.5621,-0.8162 -0.5621,-2.2639 -0.5621 -2.2639v -4.7433 ZM 448.4189,14.1016 ZM 449.4199,6.4630 h 1.8480 l 0.1540,0.9702 h 0.0616 c 0.4928,-0.4620 1.0780,-0.8085 1.0780 -0.8085c 0.5852,-0.3465 1.3706,-0.3465 1.3706 -0.3465c 1.2474,0.0000 1.8095,0.8162 1.8095 0.8162c 0.5621,0.8162 0.5621,2.2639 0.5621 2.2639v 4.7433 h -2.2639 v -4.4507 c 0.0000,-0.8316 -0.2233,-1.1396 -0.2233 -1.1396c -0.2233,-0.3080 -0.7161,-0.3080 -0.7161 -0.3080c -0.4312,-0.0000 -0.7392,0.1925 -0.7392 0.1925c -0.3080,0.1925 -0.6776,0.5467 -0.6776 0.5467v 5.1591 h -2.2639 v -7.6386 ZM 457.2279,14.1016 ZM 457.7823,10.2823 c 0.0000,-0.9548 0.3234,-1.7017 0.3234 -1.7017c 0.3234,-0.7469 0.8701,-1.2551 0.8701 -1.2551c 0.5467,-0.5082 1.2705,-0.7777 1.2705 -0.7777c 0.7238,-0.2695 1.5092,-0.2695 1.5092 -0.2695c 0.7084,0.0000 1.2782,0.2387 1.2782 0.2387c 0.5698,0.2387 0.9548,0.6391 0.9548 0.6391l -1.0318,1.4014 c -0.5390,-0.4466 -1.0626,-0.4466 -1.0626 -0.4466c -0.8316,-0.0000 -1.3090,0.5852 -1.3090 0.5852c -0.4774,0.5852 -0.4774,1.5862 -0.4774 1.5862c 0.0000,1.0010 0.4851,1.5862 0.4851 1.5862c 0.4851,0.5852 1.2243,0.5852 1.2243 0.5852c 0.4158,0.0000 0.7546,-0.1694 0.7546 -0.1694c 0.3388,-0.1694 0.6160,-0.3850 0.6160 -0.3850l 0.9086,1.4322 c -0.5544,0.4928 -1.2320,0.7238 -1.2320 0.7238c -0.6776,0.2310 -1.3090,0.2310 -1.3090 0.2310c -0.8008,-0.0000 -1.4861,-0.2695 -1.4861 -0.2695c -0.6853,-0.2695 -1.1935,-0.7777 -1.1935 -0.7777c -0.5082,-0.5082 -0.8008,-1.2551 -0.8008 -1.2551c -0.2926,-0.7469 -0.2926,-1.7017 -0.2926 -1.7017ZM 464.4199,14.1016 ZM 465.7290,8.2341 h -1.0472 v -1.6786 l 1.1704,-0.0924 l 0.2618,-2.0329 h 1.8789 v 2.0329 h 1.8326 v 1.7710 h -1.8326 v 3.0647 c 0.0000,0.6468 0.2695,0.9317 0.2695 0.9317c 0.2695,0.2849 0.7161,0.2849 0.7161 0.2849c 0.1848,0.0000 0.3773,-0.0462 0.3773 -0.0462c 0.1925,-0.0462 0.3465,-0.1078 0.3465 -0.1078l 0.3542,1.6478 c -0.3080,0.0924 -0.7238,0.1848 -0.7238 0.1848c -0.4158,0.0924 -0.9702,0.0924 -0.9702 0.0924c -0.7084,-0.0000 -1.2089,-0.2156 -1.2089 -0.2156c -0.5005,-0.2156 -0.8162,-0.6006 -0.8162 -0.6006c -0.3157,-0.3850 -0.4620,-0.9317 -0.4620 -0.9317c -0.1463,-0.5467 -0.1463,-1.2089 -0.1463 -1.2089v -3.0955 ZM 470.3183,14.1016 ZM 472.4435,5.3388 c -0.5698,-0.0000 -0.9394,-0.3311 -0.9394 -0.3311c -0.3696,-0.3311 -0.3696,-0.8547 -0.3696 -0.8547c 0.0000,-0.5236 0.3696,-0.8470 0.3696 -0.8470c 0.3696,-0.3234 0.9394,-0.3234 0.9394 -0.3234c 0.5852,0.0000 0.9471,0.3234 0.9471 0.3234c 0.3619,0.3234 0.3619,0.8470 0.3619 0.8470c 0.0000,0.5236 -0.3619,0.8547 -0.3619 0.8547c -0.3619,0.3311 -0.9471,0.3311 -0.9471 0.3311ZM 472.4435,5.3388 ZM 471.3193,6.4630 h 2.2639 v 7.6386 h -2.2639 v -7.6386 ZM 474.5688,14.1016 ZM 475.1232,10.2823 c 0.0000,-0.9548 0.3080,-1.7017 0.3080 -1.7017c 0.3080,-0.7469 0.8239,-1.2551 0.8239 -1.2551c 0.5159,-0.5082 1.1935,-0.7777 1.1935 -0.7777c 0.6776,-0.2695 1.4014,-0.2695 1.4014 -0.2695c 0.7238,0.0000 1.3937,0.2695 1.3937 0.2695c 0.6699,0.2695 1.1858,0.7777 1.1858 0.7777c 0.5159,0.5082 0.8239,1.2551 0.8239 1.2551c 0.3080,0.7469 0.3080,1.7017 0.3080 1.7017c 0.0000,0.9548 -0.3080,1.7017 -0.3080 1.7017c -0.3080,0.7469 -0.8239,1.2551 -0.8239 1.2551c -0.5159,0.5082 -1.1858,0.7777 -1.1858 0.7777c -0.6699,0.2695 -1.3937,0.2695 -1.3937 0.2695c -0.7238,-0.0000 -1.4014,-0.2695 -1.4014 -0.2695c -0.6776,-0.2695 -1.1935,-0.7777 -1.1935 -0.7777c -0.5159,-0.5082 -0.8239,-1.2551 -0.8239 -1.2551c -0.3080,-0.7469 -0.3080,-1.7017 -0.3080 -1.7017ZM 475.1232,10.2823 ZM 477.4487,10.2823 c 0.0000,1.0010 0.3465,1.5862 0.3465 1.5862c 0.3465,0.5852 1.0549,0.5852 1.0549 0.5852c 0.6930,0.0000 1.0472,-0.5852 1.0472 -0.5852c 0.3542,-0.5852 0.3542,-1.5862 0.3542 -1.5862c 0.0000,-1.0010 -0.3542,-1.5862 -0.3542 -1.5862c -0.3542,-0.5852 -1.0472,-0.5852 -1.0472 -0.5852c -0.7084,-0.0000 -1.0549,0.5852 -1.0549 0.5852c -0.3465,0.5852 -0.3465,1.5862 -0.3465 1.5862ZM 483.1160,14.1016 ZM 484.1170,6.4630 h 1.8480 l 0.1540,0.9702 h 0.0616 c 0.4928,-0.4620 1.0780,-0.8085 1.0780 -0.8085c 0.5852,-0.3465 1.3706,-0.3465 1.3706 -0.3465c 1.2474,0.0000 1.8095,0.8162 1.8095 0.8162c 0.5621,0.8162 0.5621,2.2639 0.5621 2.2639v 4.7433 h -2.2639 v -4.4507 c 0.0000,-0.8316 -0.2233,-1.1396 -0.2233 -1.1396c -0.2233,-0.3080 -0.7161,-0.3080 -0.7161 -0.3080c -0.4312,-0.0000 -0.7392,0.1925 -0.7392 0.1925c -0.3080,0.1925 -0.6776,0.5467 -0.6776 0.5467v 5.1591 h -2.2639 v -7.6386 Z"/></g><g stroke-width="0.9999999999999997" fill-opacity="0.0" fill="rgb(0,0,0)" stroke-dasharray="4.999999999999998,4.999999999999998" stroke-linecap="butt" stroke-linejoin="miter" stroke-dashoffset="0.0" stroke-opacity="1.0" stroke-miterlimit="10.0" stroke="rgb(211,211,211)"><path d="M 27.5840,35.0000 v 515.0000 "/></g><g stroke-width="0.9999999999999997" fill-opacity="0.0" fill="rgb(0,0,0)" stroke-dasharray="4.999999999999998,4.999999999999998" stroke-linecap="butt" stroke-linejoin="miter" stroke-dashoffset="0.0" stroke-opacity="1.0" stroke-miterlimit="10.0" stroke="rgb(211,211,211)"><path d="M 179.1113,35.0000 v 515.0000 "/></g><g stroke-width="0.9999999999999997" fill-opacity="0.0" fill="rgb(0,0,0)" stroke-dasharray="4.999999999999998,4.999999999999998" stroke-linecap="butt" stroke-linejoin="miter" stroke-dashoffset="0.0" stroke-opacity="1.0" stroke-miterlimit="10.0" stroke="rgb(211,211,211)"><path d="M 330.6387,35.0000 v 515.0000 "/></g><g stroke-width="0.9999999999999997" fill-opacity="0.0" fill="rgb(0,0,0)" stroke-dasharray="4.999999999999998,4.999999999999998" stroke-linecap="butt" stroke-linejoin="miter" stroke-dashoffset="0.0" stroke-opacity="1.0" stroke-miterlimit="10.0" stroke="rgb(211,211,211)"><path d="M 482.1660,35.0000 v 515.0000 "/></g><g stroke-width="0.9999999999999997" fill-opacity="0.0" fill="rgb(0,0,0)" stroke-dasharray="4.999999999999998,4.999999999999998" stroke-linecap="butt" stroke-linejoin="miter" stroke-dashoffset="0.0" stroke-opacity="1.0" stroke-miterlimit="10.0" stroke="rgb(211,211,211)"><path d="M 633.6933,35.0000 v 515.0000 "/></g><g stroke-width="0.9999999999999997" fill-opacity="0.0" fill="rgb(0,0,0)" stroke-dasharray="4.999999999999998,4.999999999999998" stroke-linecap="butt" stroke-linejoin="miter" stroke-dashoffset="0.0" stroke-opacity="1.0" stroke-miterlimit="10.0" stroke="rgb(211,211,211)"><path d="M 785.2206,35.0000 v 515.0000 "/></g><g stroke-width="0.9999999999999997" fill-opacity="0.0" fill="rgb(0,0,0)" stroke-dasharray="4.999999999999998,4.999999999999998" stroke-linecap="butt" stroke-linejoin="miter" stroke-dashoffset="0.0" stroke-opacity="1.0" stroke-miterlimit="10.0" stroke="rgb(211,211,211)"><path d="M 27.5840,550.0000 h 757.6366 "/></g><g stroke-width="0.9999999999999997" fill-opacity="0.0" fill="rgb(0,0,0)" stroke-dasharray="4.999999999999998,4.999999999999998" stroke-linecap="butt" stroke-linejoin="miter" stroke-dashoffset="0.0" stroke-opacity="1.0" stroke-miterlimit="10.0" stroke="rgb(211,211,211)"><path d="M 27.5840,421.2500 h 757.6366 "/></g><g stroke-width="0.9999999999999997" fill-opacity="0.0" fill="rgb(0,0,0)" stroke-dasharray="4.999999999999998,4.999999999999998" stroke-linecap="butt" stroke-linejoin="miter" stroke-dashoffset="0.0" stroke-opacity="1.0" stroke-miterlimit="10.0" stroke="rgb(211,211,211)"><path d="M 27.5840,292.5000 h 757.6366 "/></g><g stroke-width="0.9999999999999997" fill-opacity="0.0" fill="rgb(0,0,0)" stroke-dasharray="4.999999999999998,4.999999999999998" stroke-linecap="butt" stroke-linejoin="miter" stroke-dashoffset="0.0" stroke-opacity="1.0" stroke-miterlimit="10.0" stroke="rgb(211,211,211)"><path d="M 27.5840,163.7500 h 757.6366 "/></g><g stroke-width="0.9999999999999997" fill-opacity="0.0" fill="rgb(0,0,0)" stroke-dasharray="4.999999999999998,4.999999999999998" stroke-linecap="butt" stroke-linejoin="miter" stroke-dashoffset="0.0" stroke-opacity="1.0" stroke-miterlimit="10.0" stroke="rgb(211,211,211)"><path d="M 27.5840,35.0000 h 757.6366 "/></g><g stroke-width="0.9999999999999997" fill-opacity="0.0" fill="rgb(0,0,0)" stroke-linecap="round" stroke-linejoin="round" stroke-opacity="1.0" stroke-miterlimit="10.0" stroke="rgb(0,0,255)"><defs><clipPath id="myClip1"><path d="M 27.5840,35.0000 v 515.0000 h 757.6366 v -515.0000 Z"/></clipPath></defs><g clip-path="url(#myClip1)"><path d="M 27.5840,234.9639 l 3.0305,-7.9539 l 3.0305,-7.3014 l 3.0305,-6.6111 l 3.0305,-5.8887 l 3.0305,-5.1402 l 3.0305,-4.3719 l 3.0305,-3.5898 l 3.0305,-2.8002 l 3.0305,-2.0091 l 3.0305,-1.2226 l 3.0305,-0.4466 l 3.0305,0.3133 l 3.0305,1.0516 l 3.0305,1.7631 l 3.0305,2.4429 l 3.0305,3.0866 l 3.0305,3.6900 l 3.0305,4.2494 l 3.0305,4.7615 l 3.0305,5.2234 l 3.0305,5.6329 l 3.0305,5.9879 l 3.0305,6.2872 l 3.0305,6.5297 l 3.0305,6.7151 l 3.0305,6.8434 l 3.0305,6.9152 l 3.0305,6.9314 l 3.0305,6.8935 l 3.0305,6.8033 l 3.0305,6.6631 l 3.0305,6.4756 l 3.0305,6.2436 l 3.0305,5.9705 l 3.0305,5.6598 l 3.0305,5.3153 l 3.0305,4.9409 l 3.0305,4.5408 l 3.0305,4.1193 l 3.0305,3.6806 l 3.0305,3.2291 l 3.0305,2.7691 l 3.0305,2.3050 l 3.0305,1.8410 l 3.0305,1.3811 l 3.0305,0.9293 l 3.0305,0.4893 l 3.0305,0.0646 l 3.0305,-0.3415 l 3.0305,-0.7260 l 3.0305,-1.0864 l 3.0305,-1.4202 l 3.0305,-1.7255 l 3.0305,-2.0006 l 3.0305,-2.2443 l 3.0305,-2.4555 l 3.0305,-2.6339 l 3.0305,-2.7791 l 3.0305,-2.8914 l 3.0305,-2.9714 l 3.0305,-3.0199 l 3.0305,-3.0382 l 3.0305,-3.0277 l 3.0305,-2.9903 l 3.0305,-2.9281 l 3.0305,-2.8434 l 3.0305,-2.7387 l 3.0305,-2.6166 l 3.0305,-2.4801 l 3.0305,-2.3320 l 3.0305,-2.1754 l 3.0305,-2.0134 l 3.0305,-1.8490 l 3.0305,-1.6852 l 3.0305,-1.5249 l 3.0305,-1.3712 l 3.0305,-1.2265 l 3.0305,-1.0936 l 3.0305,-0.9748 l 3.0305,-0.8722 l 3.0305,-0.7877 l 3.0305,-0.7230 l 3.0305,-0.6792 l 3.0305,-0.6575 l 3.0305,-0.6586 l 3.0305,-0.6827 l 3.0305,-0.7300 l 3.0305,-0.8001 l 3.0305,-0.8922 l 3.0305,-1.0055 l 3.0305,-1.1386 l 3.0305,-1.2897 l 3.0305,-1.4570 l 3.0305,-1.6382 l 3.0305,-1.8307 l 3.0305,-2.0319 l 3.0305,-2.2387 l 3.0305,-2.4479 l 3.0305,-2.6562 l 3.0305,-2.8603 l 3.0305,-3.0565 l 3.0305,-3.2413 l 3.0305,-3.4112 l 3.0305,-3.5624 l 3.0305,-3.6916 l 3.0305,-3.7954 l 3.0305,-3.8705 l 3.0305,-3.9139 l 3.0305,-3.9227 l 3.0305,-3.8944 l 3.0305,-3.8266 l 3.0305,-3.7173 l 3.0305,-3.5649 l 3.0305,-3.3682 l 3.0305,-3.1263 l 3.0305,-2.8387 l 3.0305,-2.5053 l 3.0305,-2.1267 l 3.0305,-1.7036 l 3.0305,-1.2373 l 3.0305,-0.7297 l 3.0305,-0.1830 l 3.0305,0.4003 l 3.0305,1.0169 l 3.0305,1.6635 l 3.0305,2.3361 l 3.0305,3.0305 l 3.0305,3.7420 l 3.0305,4.4658 l 3.0305,5.1967 l 3.0305,5.9293 l 3.0305,6.6579 l 3.0305,7.3769 l 3.0305,8.0804 l 3.0305,8.7625 l 3.0305,9.4172 l 3.0305,10.0387 l 3.0305,10.6212 l 3.0305,11.1591 l 3.0305,11.6468 l 3.0305,12.0792 l 3.0305,12.4514 l 3.0305,12.7587 l 3.0305,12.9970 l 3.0305,13.1624 l 3.0305,13.2516 l 3.0305,13.2618 l 3.0305,13.1906 l 3.0305,13.0364 l 3.0305,12.7978 l 3.0305,12.4745 l 3.0305,12.0663 l 3.0305,11.5740 l 3.0305,10.9989 l 3.0305,10.3428 l 3.0305,9.6085 l 3.0305,8.7991 l 3.0305,7.9184 l 3.0305,6.9708 l 3.0305,5.9612 l 3.0305,4.8951 l 3.0305,3.7787 l 3.0305,2.6182 l 3.0305,1.4206 l 3.0305,0.1932 l 3.0305,-1.0565 l 3.0305,-2.3206 l 3.0305,-3.5910 l 3.0305,-4.8595 l 3.0305,-6.1177 l 3.0305,-7.3573 l 3.0305,-8.5699 l 3.0305,-9.7472 l 3.0305,-10.8811 l 3.0305,-11.9637 l 3.0305,-12.9874 l 3.0305,-13.9448 l 3.0305,-14.8290 l 3.0305,-15.6336 l 3.0305,-16.3526 l 3.0305,-16.9805 l 3.0305,-17.5126 l 3.0305,-17.9446 l 3.0305,-18.2730 l 3.0305,-18.4951 l 3.0305,-18.6086 l 3.0305,-18.6123 l 3.0305,-18.5057 l 3.0305,-18.2888 l 3.0305,-17.9628 l 3.0305,-17.5294 l 3.0305,-16.9911 l 3.0305,-16.3513 l 3.0305,-15.6141 l 3.0305,-14.7841 l 3.0305,-13.8669 l 3.0305,-12.8685 l 3.0305,-11.7957 l 3.0305,-10.6558 l 3.0305,-9.4564 l 3.0305,-8.2059 l 3.0305,-6.9128 l 3.0305,-5.5862 l 3.0305,-4.2351 l 3.0305,-2.8692 l 3.0305,-1.4978 l 3.0305,-0.1306 l 3.0305,1.2229 l 3.0305,2.5531 l 3.0305,3.8508 l 3.0305,5.1067 l 3.0305,6.3123 l 3.0305,7.4589 l 3.0305,8.5387 l 3.0305,9.5442 l 3.0305,10.4685 l 3.0305,11.3052 l 3.0305,12.0487 l 3.0305,12.6941 l 3.0305,13.2371 l 3.0305,13.6745 l 3.0305,14.0036 l 3.0305,14.2227 l 3.0305,14.3309 l 3.0305,14.3281 l 3.0305,14.2153 l 3.0305,13.9940 l 3.0305,13.6668 l 3.0305,13.2372 l 3.0305,12.7093 l 3.0305,12.0881 l 3.0305,11.3793 l 3.0305,10.5893 l 3.0305,9.7252 l 3.0305,8.7947 l 3.0305,7.8059 l 3.0305,6.7677 l 3.0305,5.6889 l 3.0305,4.5792 l 3.0305,3.4483 l 3.0305,2.3059 l 3.0305,1.1622 l 3.0305,0.0271 l 3.0305,-1.0892 l 3.0305,-2.1770 l 3.0305,-3.2266 l 3.0305,-4.2286 l 3.0305,-5.1739 l 3.0305,-6.0540 l 3.0305,-6.8608 "/></g></g><g stroke-width="0.9999999999999997" fill-opacity="0.0" fill="rgb(0,0,0)" stroke-linecap="square" stroke-linejoin="miter" stroke-opacity="1.0" stroke-miterlimit="10.0" stroke="rgb(0,0,0)"><path d="M 27.5840,550.0000 v -515.0000 "/></g><g stroke-width="0.9999999999999997" fill-opacity="0.0" fill="rgb(0,0,0)" stroke-linecap="butt" stroke-linejoin="miter" stroke-opacity="1.0" stroke-miterlimit="10.0" stroke="rgb(0,0,0)"><path d="M 27.5840,550.0000 h 2.0000 "/></g><g stroke-width="0.9999999999999997" fill-opacity="0.0" fill="rgb(0,0,0)" stroke-linecap="butt" stroke-linejoin="miter" stroke-opacity="1.0" stroke-miterlimit="10.0" stroke="rgb(0,0,0)"><path d="M 27.5840,537.1250 h 2.0000 "/></g><g stroke-width="0.9999999999999997" fill-opacity="0.0" fill="rgb(0,0,0)" stroke-linecap="butt" stroke-linejoin="miter" stroke-opacity="1.0" stroke-miterlimit="10.0" stroke="rgb(0,0,0)"><path d="M 27.5840,524.2500 h 2.0000 "/></g><g stroke-width="0.9999999999999997" fill-opacity="0.0" fill="rgb(0,0,0)" stroke-linecap="butt" stroke-linejoin="miter" stroke-opacity="1.0" stroke-miterlimit="10.0" stroke="rgb(0,0,0)"><path d="M 27.5840,511.3750 h 2.0000 "/></g><g stroke-width="0.9999999999999997" fill-opacity="0.0" fill="rgb(0,0,0)" stroke-linecap="butt" stroke-linejoin="miter" stroke-opacity="1.0" stroke-miterlimit="10.0" stroke="rgb(0,0,0)"><path d="M 27.5840,498.5000 h 2.0000 "/></g><g stroke-width="0.9999999999999997" fill-opacity="0.0" fill="rgb(0,0,0)" stroke-linecap="butt" stroke-linejoin="miter" stroke-opacity="1.0" stroke-miterlimit="10.0" stroke="rgb(0,0,0)"><path d="M 27.5840,485.6250 h 2.0000 "/></g><g stroke-width="0.9999999999999997" fill-opacity="0.0" fill="rgb(0,0,0)" stroke-linecap="butt" stroke-linejoin="miter" stroke-opacity="1.0" stroke-miterlimit="10.0" stroke="rgb(0,0,0)"><path d="M 27.5840,472.7500 h 2.0000 "/></g><g stroke-width="0.9999999999999997" fill-opacity="0.0" fill="rgb(0,0,0)" stroke-linecap="butt" stroke-linejoin="miter" stroke-opacity="1.0" stroke-miterlimit="10.0" stroke="rgb(0,0,0)"><path d="M 27.5840,459.8750 h 2.0000 "/></g><g stroke-width="0.9999999999999997" fill-opacity="0.0" fill="rgb(0,0,0)" stroke-linecap="butt" stroke-linejoin="miter" stroke-opacity="1.0" stroke-miterlimit="10.0" stroke="rgb(0,0,0)"><path d="M 27.5840,447.0000 h 2.0000 "/></g><g stroke-width="0.9999999999999997" fill-opacity="0.0" fill="rgb(0,0,0)" stroke-linecap="butt" stroke-linejoin="miter" stroke-opacity="1.0" stroke-miterlimit="10.0" stroke="rgb(0,0,0)"><path d="M 27.5840,434.1250 h 2.0000 "/></g><g stroke-width="0.9999999999999997" fill-opacity="0.0" fill="rgb(0,0,0)" stroke-linecap="butt" stroke-linejoin="miter" stroke-opacity="1.0" stroke-miterlimit="10.0" stroke="rgb(0,0,0)"><path d="M 27.5840,421.2500 h 2.0000 "/></g><g stroke-width="0.9999999999999997" fill-opacity="0.0" fill="rgb(0,0,0)" stroke-linecap="butt" stroke-linejoin="miter" stroke-opacity="1.0" stroke-miterlimit="10.0" stroke="rgb(0,0,0)"><path d="M 27.5840,408.3750 h 2.0000 "/></g><g stroke-width="0.9999999999999997" fill-opacity="0.0" fill="rgb(0,0,0)" stroke-linecap="butt" stroke-linejoin="miter" stroke-opacity="1.0" stroke-miterlimit="10.0" stroke="rgb(0,0,0)"><path d="M 27.5840,395.5000 h 2.0000 "/></g><g stroke-width="0.9999999999999997" fill-opacity="0.0" fill="rgb(0,0,0)" stroke-linecap="butt" stroke-linejoin="miter" stroke-opacity="1.0" stroke-miterlimit="10.0" stroke="rgb(0,0,0)"><path d="M 27.5840,382.6250 h 2.0000 "/></g><g stroke-width="0.9999999999999997" fill-opacity="0.0" fill="rgb(0,0,0)" stroke-linecap="butt" stroke-linejoin="miter" stroke-opacity="1.0" stroke-miterlimit="10.0" stroke="rgb(0,0,0)"><path d="M 27.5840,369.7500 h 2.0000 "/></g><g stroke-width="0.9999999999999997" fill-opacity="0.0" fill="rgb(0,0,0)" stroke-linecap="butt" stroke-linejoin="miter" stroke-opacity="1.0" stroke-miterlimit="10.0" stroke="rgb(0,0,0)"><path d="M 27.5840,356.8750 h 2.0000 "/></g><g stroke-width="0.9999999999999997" fill-opacity="0.0" fill="rgb(0,0,0)" stroke-linecap="butt" stroke-linejoin="miter" stroke-opacity="1.0" stroke-miterlimit="10.0" stroke="rgb(0,0,0)"><path d="M 27.5840,344.0000 h 2.0000 "/></g><g stroke-width="0.9999999999999997" fill-opacity="0.0" fill="rgb(0,0,0)" stroke-linecap="butt" stroke-linejoin="miter" stroke-opacity="1.0" stroke-miterlimit="10.0" stroke="rgb(0,0,0)"><path d="M 27.5840,331.1250 h 2.0000 "/></g><g stroke-width="0.9999999999999997" fill-opacity="0.0" fill="rgb(0,0,0)" stroke-linecap="butt" stroke-linejoin="miter" stroke-opacity="1.0" stroke-miterlimit="10.0" stroke="rgb(0,0,0)"><path d="M 27.5840,318.2500 h 2.0000 "/></g><g stroke-width="0.9999999999999997" fill-opacity="0.0" fill="rgb(0,0,0)" stroke-linecap="butt" stroke-linejoin="miter" stroke-opacity="1.0" stroke-miterlimit="10.0" stroke="rgb(0,0,0)"><path d="M 27.5840,305.3750 h 2.0000 "/></g><g stroke-width="0.9999999999999997" fill-opacity="0.0" fill="rgb(0,0,0)" stroke-linecap="butt" stroke-linejoin="miter" stroke-opacity="1.0" stroke-miterlimit="10.0" stroke="rgb(0,0,0)"><path d="M 27.5840,292.5000 h 2.0000 "/></g><g stroke-width="0.9999999999999997" fill-opacity="0.0" fill="rgb(0,0,0)" stroke-linecap="butt" stroke-linejoin="miter" stroke-opacity="1.0" stroke-miterlimit="10.0" stroke="rgb(0,0,0)"><path d="M 27.5840,279.6250 h 2.0000 "/></g><g stroke-width="0.9999999999999997" fill-opacity="0.0" fill="rgb(0,0,0)" stroke-linecap="butt" stroke-linejoin="miter" stroke-opacity="1.0" stroke-miterlimit="10.0" stroke="rgb(0,0,0)"><path d="M 27.5840,266.7500 h 2.0000 "/></g><g stroke-width="0.9999999999999997" fill-opacity="0.0" fill="rgb(0,0,0)" stroke-linecap="butt" stroke-linejoin="miter" stroke-opacity="1.0" stroke-miterlimit="10.0" stroke="rgb(0,0,0)"><path d="M 27.5840,253.8750 h 2.0000 "/></g><g stroke-width="0.9999999999999997" fill-opacity="0.0" fill="rgb(0,0,0)" stroke-linecap="butt" stroke-linejoin="miter" stroke-opacity="1.0" stroke-miterlimit="10.0" stroke="rgb(0,0,0)"><path d="M 27.5840,241.0000 h 2.0000 "/></g><g stroke-width="0.9999999999999997" fill-opacity="0.0" fill="rgb(0,0,0)" stroke-linecap="butt" stroke-linejoin="miter" stroke-opacity="1.0" stroke-miterlimit="10.0" stroke="rgb(0,0,0)"><path d="M 27.5840,228.1250 h 2.0000 "/></g><g stroke-width="0.9999999999999997" fill-opacity="0.0" fill="rgb(0,0,0)" stroke-linecap="butt" stroke-linejoin="miter" stroke-opacity="1.0" stroke-miterlimit="10.0" stroke="rgb(0,0,0)"><path d="M 27.5840,215.2500 h 2.0000 "/></g><g stroke-width="0.9999999999999997" fill-opacity="0.0" fill="rgb(0,0,0)" stroke-linecap="butt" stroke-linejoin="miter" stroke-opacity="1.0" stroke-miterlimit="10.0" stroke="rgb(0,0,0)"><path d="M 27.5840,202.3750 h 2.0000 "/></g><g stroke-width="0.9999999999999997" fill-opacity="0.0" fill="rgb(0,0,0)" stroke-linecap="butt" stroke-linejoin="miter" stroke-opacity="1.0" stroke-miterlimit="10.0" stroke="rgb(0,0,0)"><path d="M 27.5840,189.5000 h 2.0000 "/></g><g stroke-width="0.9999999999999997" fill-opacity="0.0" fill="rgb(0,0,0)" stroke-linecap="butt" stroke-linejoin="miter" stroke-opacity="1.0" stroke-miterlimit="10.0" stroke="rgb(0,0,0)"><path d="M 27.5840,176.6250 h 2.0000 "/></g><g stroke-width="0.9999999999999997" fill-opacity="0.0" fill="rgb(0,0,0)" stroke-linecap="butt" stroke-linejoin="miter" stroke-opacity="1.0" stroke-miterlimit="10.0" stroke="rgb(0,0,0)"><path d="M 27.5840,163.7500 h 2.0000 "/></g><g stroke-width="0.9999999999999997" fill-opacity="0.0" fill="rgb(0,0,0)" stroke-linecap="butt" stroke-linejoin="miter" stroke-opacity="1.0" stroke-miterlimit="10.0" stroke="rgb(0,0,0)"><path d="M 27.5840,150.8750 h 2.0000 "/></g><g stroke-width="0.9999999999999997" fill-opacity="0.0" fill="rgb(0,0,0)" stroke-linecap="butt" stroke-linejoin="miter" stroke-opacity="1.0" stroke-miterlimit="10.0" stroke="rgb(0,0,0)"><path d="M 27.5840,138.0000 h 2.0000 "/></g><g stroke-width="0.9999999999999997" fill-opacity="0.0" fill="rgb(0,0,0)" stroke-linecap="butt" stroke-linejoin="miter" stroke-opacity="1.0" stroke-miterlimit="10.0" stroke="rgb(0,0,0)"><path d="M 27.5840,125.1250 h 2.0000 "/></g><g stroke-width="0.9999999999999997" fill-opacity="0.0" fill="rgb(0,0,0)" stroke-linecap="butt" stroke-linejoin="miter" stroke-opacity="1.0" stroke-miterlimit="10.0" stroke="rgb(0,0,0)"><path d="M 27.5840,112.2500 h 2.0000 "/></g><g stroke-width="0.9999999999999997" fill-opacity="0.0" fill="rgb(0,0,0)" stroke-linecap="butt" stroke-linejoin="miter" stroke-opacity="1.0" stroke-miterlimit="10.0" stroke="rgb(0,0,0)"><path d="M 27.5840,99.3750 h 2.0000 "/></g><g stroke-width="0.9999999999999997" fill-opacity="0.0" fill="rgb(0,0,0)" stroke-linecap="butt" stroke-linejoin="miter" stroke-opacity="1.0" stroke-miterlimit="10.0" stroke="rgb(0,0,0)"><path d="M 27.5840,86.5000 h 2.0000 "/></g><g stroke-width="0.9999999999999997" fill-opacity="0.0" fill="rgb(0,0,0)" stroke-linecap="butt" stroke-linejoin="miter" stroke-opacity="1.0" stroke-miterlimit="10.0" stroke="rgb(0,0,0)"><path d="M 27.5840,73.6250 h 2.0000 "/></g><g stroke-width="0.9999999999999997" fill-opacity="0.0" fill="rgb(0,0,0)" stroke-linecap="butt" stroke-linejoin="miter" stroke-opacity="1.0" stroke-miterlimit="10.0" stroke="rgb(0,0,0)"><path d="M 27.5840,60.7500 h 2.0000 "/></g><g stroke-width="0.9999999999999997" fill-opacity="0.0" fill="rgb(0,0,0)" stroke-linecap="butt" stroke-linejoin="miter" stroke-opacity="1.0" stroke-miterlimit="10.0" stroke="rgb(0,0,0)"><path d="M 27.5840,47.8750 h 2.0000 "/></g><g stroke-width="0.9999999999999997" fill-opacity="0.0" fill="rgb(0,0,0)" stroke-linecap="butt" stroke-linejoin="miter" stroke-opacity="1.0" stroke-miterlimit="10.0" stroke="rgb(0,0,0)"><path d="M 27.5840,35.0000 h 2.0000 "/></g><g stroke-width="0.9999999999999997" fill-opacity="0.0" fill="rgb(0,0,0)" stroke-linecap="butt" stroke-linejoin="miter" stroke-opacity="1.0" stroke-miterlimit="10.0" stroke="rgb(0,0,0)"><path d="M 27.5840,550.0000 h 5.0000 "/></g><g stroke-width="0.9999999999999997" fill-opacity="0.0" fill="rgb(0,0,0)" stroke-linecap="butt" stroke-linejoin="miter" stroke-opacity="1.0" stroke-miterlimit="10.0" stroke="rgb(0,0,0)"><path d="M 27.5840,421.2500 h 5.0000 "/></g><g stroke-width="0.9999999999999997" fill-opacity="0.0" fill="rgb(0,0,0)" stroke-linecap="butt" stroke-linejoin="miter" stroke-opacity="1.0" stroke-miterlimit="10.0" stroke="rgb(0,0,0)"><path d="M 27.5840,292.5000 h 5.0000 "/></g><g stroke-width="0.9999999999999997" fill-opacity="0.0" fill="rgb(0,0,0)" stroke-linecap="butt" stroke-linejoin="miter" stroke-opacity="1.0" stroke-miterlimit="10.0" stroke="rgb(0,0,0)"><path d="M 27.5840,163.7500 h 5.0000 "/></g><g stroke-width="0.9999999999999997" fill-opacity="0.0" fill="rgb(0,0,0)" stroke-linecap="butt" stroke-linejoin="miter" stroke-opacity="1.0" stroke-miterlimit="10.0" stroke="rgb(0,0,0)"><path d="M 27.5840,35.0000 h 5.0000 "/></g><g stroke-width="0.0" fill-opacity="1.0" fill="rgb(0,0,0)" stroke-linecap="butt" stroke-linejoin="bevel" stroke-opacity="0.0" stroke-miterlimit="10.0" stroke="rgb(0,0,0)"><path d="M 10.0000,553.4454 ZM 10.4307,550.4832 h 2.4160 v 0.6618 h -2.4160 v -0.6618 ZM 13.2668,553.4454 ZM 13.6870,552.9307 c 0.7563,-0.7563 1.3445,-1.3655 1.3445 -1.3655c 0.5882,-0.6092 0.9874,-1.1292 0.9874 -1.1292c 0.3992,-0.5200 0.6092,-0.9559 0.6092 -0.9559c 0.2101,-0.4359 0.2101,-0.8456 0.2101 -0.8456c 0.0000,-0.5777 -0.3151,-0.9454 -0.3151 -0.9454c -0.3151,-0.3676 -0.9559,-0.3676 -0.9559 -0.3676c -0.4202,-0.0000 -0.7773,0.2363 -0.7773 0.2363c -0.3571,0.2363 -0.6513,0.5725 -0.6513 0.5725l -0.4937,-0.4937 c 0.4202,-0.4622 0.8929,-0.7405 0.8929 -0.7405c 0.4727,-0.2784 1.1345,-0.2784 1.1345 -0.2784c 0.9349,0.0000 1.4706,0.5410 1.4706 0.5410c 0.5357,0.5410 0.5357,1.4338 0.5357 1.4338c 0.0000,0.4727 -0.2048,0.9506 -0.2048 0.9506c -0.2048,0.4779 -0.5672,0.9874 -0.5672 0.9874c -0.3624,0.5095 -0.8613,1.0609 -0.8613 1.0609c -0.4989,0.5515 -1.0977,1.1712 -1.0977 1.1712c 0.2731,-0.0210 0.5672,-0.0420 0.5672 -0.0420c 0.2941,-0.0210 0.5567,-0.0210 0.5567 -0.0210h 1.9433 v 0.7458 h -4.3277 v -0.5147 Z"/></g><g stroke-width="0.0" fill-opacity="1.0" fill="rgb(0,0,0)" stroke-linecap="butt" stroke-linejoin="bevel" stroke-opacity="0.0" stroke-miterlimit="10.0" stroke="rgb(0,0,0)"><path d="M 10.1366,424.6954 ZM 10.5672,421.7332 h 2.4160 v 0.6618 h -2.4160 v -0.6618 ZM 13.4034,424.6954 ZM 14.2332,423.9811 h 1.5336 v -4.9370 h -1.2185 v -0.5567 c 0.4622,-0.0840 0.8036,-0.2048 0.8036 -0.2048c 0.3414,-0.1208 0.6145,-0.2889 0.6145 -0.2889h 0.6618 v 5.9874 h 1.3866 v 0.7143 h -3.7815 v -0.7143 Z"/></g><g stroke-width="0.0" fill-opacity="1.0" fill="rgb(0,0,0)" stroke-linecap="butt" stroke-linejoin="bevel" stroke-opacity="0.0" stroke-miterlimit="10.0" stroke="rgb(0,0,0)"><path d="M 13.2878,295.9454 ZM 15.9034,296.0714 c -1.0189,-0.0000 -1.5861,-0.9034 -1.5861 -0.9034c -0.5672,-0.9034 -0.5672,-2.5945 -0.5672 -2.5945c 0.0000,-1.6912 0.5672,-2.5735 0.5672 -2.5735c 0.5672,-0.8824 1.5861,-0.8824 1.5861 -0.8824c 1.0084,0.0000 1.5756,0.8824 1.5756 0.8824c 0.5672,0.8824 0.5672,2.5735 0.5672 2.5735c 0.0000,1.6912 -0.5672,2.5945 -0.5672 2.5945c -0.5672,0.9034 -1.5756,0.9034 -1.5756 0.9034ZM 15.9034,296.0714 ZM 15.9034,295.3782 c 0.2941,0.0000 0.5305,-0.1628 0.5305 -0.1628c 0.2363,-0.1628 0.4097,-0.5042 0.4097 -0.5042c 0.1733,-0.3414 0.2679,-0.8718 0.2679 -0.8718c 0.0945,-0.5305 0.0945,-1.2658 0.0945 -1.2658c 0.0000,-0.7353 -0.0945,-1.2605 -0.0945 -1.2605c -0.0945,-0.5252 -0.2679,-0.8561 -0.2679 -0.8561c -0.1733,-0.3309 -0.4097,-0.4884 -0.4097 -0.4884c -0.2363,-0.1576 -0.5305,-0.1576 -0.5305 -0.1576c -0.2941,-0.0000 -0.5357,0.1576 -0.5357 0.1576c -0.2416,0.1576 -0.4149,0.4884 -0.4149 0.4884c -0.1733,0.3309 -0.2679,0.8561 -0.2679 0.8561c -0.0945,0.5252 -0.0945,1.2605 -0.0945 1.2605c 0.0000,1.4706 0.3624,2.1376 0.3624 2.1376c 0.3624,0.6670 0.9506,0.6670 0.9506 0.6670Z"/></g><g stroke-width="0.0" fill-opacity="1.0" fill="rgb(0,0,0)" stroke-linecap="butt" stroke-linejoin="bevel" stroke-opacity="0.0" stroke-miterlimit="10.0" stroke="rgb(0,0,0)"><path d="M 13.8025,167.1954 ZM 14.6324,166.4811 h 1.5336 v -4.9370 h -1.2185 v -0.5567 c 0.4622,-0.0840 0.8036,-0.2048 0.8036 -0.2048c 0.3414,-0.1208 0.6145,-0.2889 0.6145 -0.2889h 0.6618 v 5.9874 h 1.3866 v 0.7143 h -3.7815 v -0.7143 Z"/></g><g stroke-width="0.0" fill-opacity="1.0" fill="rgb(0,0,0)" stroke-linecap="butt" stroke-linejoin="bevel" stroke-opacity="0.0" stroke-miterlimit="10.0" stroke="rgb(0,0,0)"><path d="M 13.2143,38.4454 ZM 13.6345,37.9307 c 0.7563,-0.7563 1.3445,-1.3655 1.3445 -1.3655c 0.5882,-0.6092 0.9874,-1.1292 0.9874 -1.1292c 0.3992,-0.5200 0.6092,-0.9559 0.6092 -0.9559c 0.2101,-0.4359 0.2101,-0.8456 0.2101 -0.8456c 0.0000,-0.5777 -0.3151,-0.9454 -0.3151 -0.9454c -0.3151,-0.3676 -0.9559,-0.3676 -0.9559 -0.3676c -0.4202,-0.0000 -0.7773,0.2363 -0.7773 0.2363c -0.3571,0.2363 -0.6513,0.5725 -0.6513 0.5725l -0.4937,-0.4937 c 0.4202,-0.4622 0.8929,-0.7405 0.8929 -0.7405c 0.4727,-0.2784 1.1345,-0.2784 1.1345 -0.2784c 0.9349,0.0000 1.4706,0.5410 1.4706 0.5410c 0.5357,0.5410 0.5357,1.4338 0.5357 1.4338c 0.0000,0.4727 -0.2048,0.9506 -0.2048 0.9506c -0.2048,0.4779 -0.5672,0.9874 -0.5672 0.9874c -0.3624,0.5095 -0.8613,1.0609 -0.8613 1.0609c -0.4989,0.5515 -1.0977,1.1712 -1.0977 1.1712c 0.2731,-0.0210 0.5672,-0.0420 0.5672 -0.0420c 0.2941,-0.0210 0.5567,-0.0210 0.5567 -0.0210h 1.9433 v 0.7458 h -4.3277 v -0.5147 Z"/></g><g stroke-width="0.9999999999999997" fill-opacity="0.0" fill="rgb(0,0,0)" stroke-linecap="square" stroke-linejoin="miter" stroke-opacity="1.0" stroke-miterlimit="10.0" stroke="rgb(0,0,0)"><path d="M 27.5840,550.0000 h 757.6366 "/></g><g stroke-width="0.9999999999999997" fill-opacity="0.0" fill="rgb(0,0,0)" stroke-linecap="butt" stroke-linejoin="miter" stroke-opacity="1.0" stroke-miterlimit="10.0" stroke="rgb(0,0,0)"><path d="M 27.5840,550.0000 v -2.0000 "/></g><g stroke-width="0.9999999999999997" fill-opacity="0.0" fill="rgb(0,0,0)" stroke-linecap="butt" stroke-linejoin="miter" stroke-opacity="1.0" stroke-miterlimit="10.0" stroke="rgb(0,0,0)"><path d="M 42.7368,550.0000 v -2.0000 "/></g><g stroke-width="0.9999999999999997" fill-opacity="0.0" fill="rgb(0,0,0)" stroke-linecap="butt" stroke-linejoin="miter" stroke-opacity="1.0" stroke-miterlimit="10.0" stroke="rgb(0,0,0)"><path d="M 57.8895,550.0000 v -2.0000 "/></g><g stroke-width="0.9999999999999997" fill-opacity="0.0" fill="rgb(0,0,0)" stroke-linecap="butt" stroke-linejoin="miter" stroke-opacity="1.0" stroke-miterlimit="10.0" stroke="rgb(0,0,0)"><path d="M 73.0422,550.0000 v -2.0000 "/></g><g stroke-width="0.9999999999999997" fill-opacity="0.0" fill="rgb(0,0,0)" stroke-linecap="butt" stroke-linejoin="miter" stroke-opacity="1.0" stroke-miterlimit="10.0" stroke="rgb(0,0,0)"><path d="M 88.1950,550.0000 v -2.0000 "/></g><g stroke-width="0.9999999999999997" fill-opacity="0.0" fill="rgb(0,0,0)" stroke-linecap="butt" stroke-linejoin="miter" stroke-opacity="1.0" stroke-miterlimit="10.0" stroke="rgb(0,0,0)"><path d="M 103.3477,550.0000 v -2.0000 "/></g><g stroke-width="0.9999999999999997" fill-opacity="0.0" fill="rgb(0,0,0)" stroke-linecap="butt" stroke-linejoin="miter" stroke-opacity="1.0" stroke-miterlimit="10.0" stroke="rgb(0,0,0)"><path d="M 118.5004,550.0000 v -2.0000 "/></g><g stroke-width="0.9999999999999997" fill-opacity="0.0" fill="rgb(0,0,0)" stroke-linecap="butt" stroke-linejoin="miter" stroke-opacity="1.0" stroke-miterlimit="10.0" stroke="rgb(0,0,0)"><path d="M 133.6532,550.0000 v -2.0000 "/></g><g stroke-width="0.9999999999999997" fill-opacity="0.0" fill="rgb(0,0,0)" stroke-linecap="butt" stroke-linejoin="miter" stroke-opacity="1.0" stroke-miterlimit="10.0" stroke="rgb(0,0,0)"><path d="M 148.8059,550.0000 v -2.0000 "/></g><g stroke-width="0.9999999999999997" fill-opacity="0.0" fill="rgb(0,0,0)" stroke-linecap="butt" stroke-linejoin="miter" stroke-opacity="1.0" stroke-miterlimit="10.0" stroke="rgb(0,0,0)"><path d="M 163.9586,550.0000 v -2.0000 "/></g><g stroke-width="0.9999999999999997" fill-opacity="0.0" fill="rgb(0,0,0)" stroke-linecap="butt" stroke-linejoin="miter" stroke-opacity="1.0" stroke-miterlimit="10.0" stroke="rgb(0,0,0)"><path d="M 179.1113,550.0000 v -2.0000 "/></g><g stroke-width="0.9999999999999997" fill-opacity="0.0" fill="rgb(0,0,0)" stroke-linecap="butt" stroke-linejoin="miter" stroke-opacity="1.0" stroke-miterlimit="10.0" stroke="rgb(0,0,0)"><path d="M 194.2641,550.0000 v -2.0000 "/></g><g stroke-width="0.9999999999999997" fill-opacity="0.0" fill="rgb(0,0,0)" stroke-linecap="butt" stroke-linejoin="miter" stroke-opacity="1.0" stroke-miterlimit="10.0" stroke="rgb(0,0,0)"><path d="M 209.4168,550.0000 v -2.0000 "/></g><g stroke-width="0.9999999999999997" fill-opacity="0.0" fill="rgb(0,0,0)" stroke-linecap="butt" stroke-linejoin="miter" stroke-opacity="1.0" stroke-miterlimit="10.0" stroke="rgb(0,0,0)"><path d="M 224.5695,550.0000 v -2.0000 "/></g><g stroke-width="0.9999999999999997" fill-opacity="0.0" fill="rgb(0,0,0)" stroke-linecap="butt" stroke-linejoin="miter" stroke-opacity="1.0" stroke-miterlimit="10.0" stroke="rgb(0,0,0)"><path d="M 239.7223,550.0000 v -2.0000 "/></g><g stroke-width="0.9999999999999997" fill-opacity="0.0" fill="rgb(0,0,0)" stroke-linecap="butt" stroke-linejoin="miter" stroke-opacity="1.0" stroke-miterlimit="10.0" stroke="rgb(0,0,0)"><path d="M 254.8750,550.0000 v -2.0000 "/></g><g stroke-width="0.9999999999999997" fill-opacity="0.0" fill="rgb(0,0,0)" stroke-linecap="butt" stroke-linejoin="miter" stroke-opacity="1.0" stroke-miterlimit="10.0" stroke="rgb(0,0,0)"><path d="M 270.0277,550.0000 v -2.0000 "/></g><g stroke-width="0.9999999999999997" fill-opacity="0.0" fill="rgb(0,0,0)" stroke-linecap="butt" stroke-linejoin="miter" stroke-opacity="1.0" stroke-miterlimit="10.0" stroke="rgb(0,0,0)"><path d="M 285.1805,550.0000 v -2.0000 "/></g><g stroke-width="0.9999999999999997" fill-opacity="0.0" fill="rgb(0,0,0)" stroke-linecap="butt" stroke-linejoin="miter" stroke-opacity="1.0" stroke-miterlimit="10.0" stroke="rgb(0,0,0)"><path d="M 300.3332,550.0000 v -2.0000 "/></g><g stroke-width="0.9999999999999997" fill-opacity="0.0" fill="rgb(0,0,0)" stroke-linecap="butt" stroke-linejoin="miter" stroke-opacity="1.0" stroke-miterlimit="10.0" stroke="rgb(0,0,0)"><path d="M 315.4859,550.0000 v -2.0000 "/></g><g stroke-width="0.9999999999999997" fill-opacity="0.0" fill="rgb(0,0,0)" stroke-linecap="butt" stroke-linejoin="miter" stroke-opacity="1.0" stroke-miterlimit="10.0" stroke="rgb(0,0,0)"><path d="M 330.6387,550.0000 v -2.0000 "/></g><g stroke-width="0.9999999999999997" fill-opacity="0.0" fill="rgb(0,0,0)" stroke-linecap="butt" stroke-linejoin="miter" stroke-opacity="1.0" stroke-miterlimit="10.0" stroke="rgb(0,0,0)"><path d="M 345.7914,550.0000 v -2.0000 "/></g><g stroke-width="0.9999999999999997" fill-opacity="0.0" fill="rgb(0,0,0)" stroke-linecap="butt" stroke-linejoin="miter" stroke-opacity="1.0" stroke-miterlimit="10.0" stroke="rgb(0,0,0)"><path d="M 360.9441,550.0000 v -2.0000 "/></g><g stroke-width="0.9999999999999997" fill-opacity="0.0" fill="rgb(0,0,0)" stroke-linecap="butt" stroke-linejoin="miter" stroke-opacity="1.0" stroke-miterlimit="10.0" stroke="rgb(0,0,0)"><path d="M 376.0968,550.0000 v -2.0000 "/></g><g stroke-width="0.9999999999999997" fill-opacity="0.0" fill="rgb(0,0,0)" stroke-linecap="butt" stroke-linejoin="miter" stroke-opacity="1.0" stroke-miterlimit="10.0" stroke="rgb(0,0,0)"><path d="M 391.2496,550.0000 v -2.0000 "/></g><g stroke-width="0.9999999999999997" fill-opacity="0.0" fill="rgb(0,0,0)" stroke-linecap="butt" stroke-linejoin="miter" stroke-opacity="1.0" stroke-miterlimit="10.0" stroke="rgb(0,0,0)"><path d="M 406.4023,550.0000 v -2.0000 "/></g><g stroke-width="0.9999999999999997" fill-opacity="0.0" fill="rgb(0,0,0)" stroke-linecap="butt" stroke-linejoin="miter" stroke-opacity="1.0" stroke-miterlimit="10.0" stroke="rgb(0,0,0)"><path d="M 421.5550,550.0000 v -2.0000 "/></g><g stroke-width="0.9999999999999997" fill-opacity="0.0" fill="rgb(0,0,0)" stroke-linecap="butt" stroke-linejoin="miter" stroke-opacity="1.0" stroke-miterlimit="10.0" stroke="rgb(0,0,0)"><path d="M 436.7078,550.0000 v -2.0000 "/></g><g stroke-width="0.9999999999999997" fill-opacity="0.0" fill="rgb(0,0,0)" stroke-linecap="butt" stroke-linejoin="miter" stroke-opacity="1.0" stroke-miterlimit="10.0" stroke="rgb(0,0,0)"><path d="M 451.8605,550.0000 v -2.0000 "/></g><g stroke-width="0.9999999999999997" fill-opacity="0.0" fill="rgb(0,0,0)" stroke-linecap="butt" stroke-linejoin="miter" stroke-opacity="1.0" stroke-miterlimit="10.0" stroke="rgb(0,0,0)"><path d="M 467.0132,550.0000 v -2.0000 "/></g><g stroke-width="0.9999999999999997" fill-opacity="0.0" fill="rgb(0,0,0)" stroke-linecap="butt" stroke-linejoin="miter" stroke-opacity="1.0" stroke-miterlimit="10.0" stroke="rgb(0,0,0)"><path d="M 482.1660,550.0000 v -2.0000 "/></g><g stroke-width="0.9999999999999997" fill-opacity="0.0" fill="rgb(0,0,0)" stroke-linecap="butt" stroke-linejoin="miter" stroke-opacity="1.0" stroke-miterlimit="10.0" stroke="rgb(0,0,0)"><path d="M 497.3187,550.0000 v -2.0000 "/></g><g stroke-width="0.9999999999999997" fill-opacity="0.0" fill="rgb(0,0,0)" stroke-linecap="butt" stroke-linejoin="miter" stroke-opacity="1.0" stroke-miterlimit="10.0" stroke="rgb(0,0,0)"><path d="M 512.4714,550.0000 v -2.0000 "/></g><g stroke-width="0.9999999999999997" fill-opacity="0.0" fill="rgb(0,0,0)" stroke-linecap="butt" stroke-linejoin="miter" stroke-opacity="1.0" stroke-miterlimit="10.0" stroke="rgb(0,0,0)"><path d="M 527.6242,550.0000 v -2.0000 "/></g><g stroke-width="0.9999999999999997" fill-opacity="0.0" fill="rgb(0,0,0)" stroke-linecap="butt" stroke-linejoin="miter" stroke-opacity="1.0" stroke-miterlimit="10.0" stroke="rgb(0,0,0)"><path d="M 542.7769,550.0000 v -2.0000 "/></g><g stroke-width="0.9999999999999997" fill-opacity="0.0" fill="rgb(0,0,0)" stroke-linecap="butt" stroke-linejoin="miter" stroke-opacity="1.0" stroke-miterlimit="10.0" stroke="rgb(0,0,0)"><path d="M 557.9296,550.0000 v -2.0000 "/></g><g stroke-width="0.9999999999999997" fill-opacity="0.0" fill="rgb(0,0,0)" stroke-linecap="butt" stroke-linejoin="miter" stroke-opacity="1.0" stroke-miterlimit="10.0" stroke="rgb(0,0,0)"><path d="M 573.0824,550.0000 v -2.0000 "/></g><g stroke-width="0.9999999999999997" fill-opacity="0.0" fill="rgb(0,0,0)" stroke-linecap="butt" stroke-linejoin="miter" stroke-opacity="1.0" stroke-miterlimit="10.0" stroke="rgb(0,0,0)"><path d="M 588.2351,550.0000 v -2.0000 "/></g><g stroke-width="0.9999999999999997" fill-opacity="0.0" fill="rgb(0,0,0)" stroke-linecap="butt" stroke-linejoin="miter" stroke-opacity="1.0" stroke-miterlimit="10.0" stroke="rgb(0,0,0)"><path d="M 603.3878,550.0000 v -2.0000 "/></g><g stroke-width="0.9999999999999997" fill-opacity="0.0" fill="rgb(0,0,0)" stroke-linecap="butt" stroke-linejoin="miter" stroke-opacity="1.0" stroke-miterlimit="10.0" stroke="rgb(0,0,0)"><path d="M 618.5405,550.0000 v -2.0000 "/></g><g stroke-width="0.9999999999999997" fill-opacity="0.0" fill="rgb(0,0,0)" stroke-linecap="butt" stroke-linejoin="miter" stroke-opacity="1.0" stroke-miterlimit="10.0" stroke="rgb(0,0,0)"><path d="M 633.6933,550.0000 v -2.0000 "/></g><g stroke-width="0.9999999999999997" fill-opacity="0.0" fill="rgb(0,0,0)" stroke-linecap="butt" stroke-linejoin="miter" stroke-opacity="1.0" stroke-miterlimit="10.0" stroke="rgb(0,0,0)"><path d="M 648.8460,550.0000 v -2.0000 "/></g><g stroke-width="0.9999999999999997" fill-opacity="0.0" fill="rgb(0,0,0)" stroke-linecap="butt" stroke-linejoin="miter" stroke-opacity="1.0" stroke-miterlimit="10.0" stroke="rgb(0,0,0)"><path d="M 663.9987,550.0000 v -2.0000 "/></g><g stroke-width="0.9999999999999997" fill-opacity="0.0" fill="rgb(0,0,0)" stroke-linecap="butt" stroke-linejoin="miter" stroke-opacity="1.0" stroke-miterlimit="10.0" stroke="rgb(0,0,0)"><path d="M 679.1515,550.0000 v -2.0000 "/></g><g stroke-width="0.9999999999999997" fill-opacity="0.0" fill="rgb(0,0,0)" stroke-linecap="butt" stroke-linejoin="miter" stroke-opacity="1.0" stroke-miterlimit="10.0" stroke="rgb(0,0,0)"><path d="M 694.3042,550.0000 v -2.0000 "/></g><g stroke-width="0.9999999999999997" fill-opacity="0.0" fill="rgb(0,0,0)" stroke-linecap="butt" stroke-linejoin="miter" stroke-opacity="1.0" stroke-miterlimit="10.0" stroke="rgb(0,0,0)"><path d="M 709.4569,550.0000 v -2.0000 "/></g><g stroke-width="0.9999999999999997" fill-opacity="0.0" fill="rgb(0,0,0)" stroke-linecap="butt" stroke-linejoin="miter" stroke-opacity="1.0" stroke-miterlimit="10.0" stroke="rgb(0,0,0)"><path d="M 724.6097,550.0000 v -2.0000 "/></g><g stroke-width="0.9999999999999997" fill-opacity="0.0" fill="rgb(0,0,0)" stroke-linecap="butt" stroke-linejoin="miter" stroke-opacity="1.0" stroke-miterlimit="10.0" stroke="rgb(0,0,0)"><path d="M 739.7624,550.0000 v -2.0000 "/></g><g stroke-width="0.9999999999999997" fill-opacity="0.0" fill="rgb(0,0,0)" stroke-linecap="butt" stroke-linejoin="miter" stroke-opacity="1.0" stroke-miterlimit="10.0" stroke="rgb(0,0,0)"><path d="M 754.9151,550.0000 v -2.0000 "/></g><g stroke-width="0.9999999999999997" fill-opacity="0.0" fill="rgb(0,0,0)" stroke-linecap="butt" stroke-linejoin="miter" stroke-opacity="1.0" stroke-miterlimit="10.0" stroke="rgb(0,0,0)"><path d="M 770.0679,550.0000 v -2.0000 "/></g><g stroke-width="0.9999999999999997" fill-opacity="0.0" fill="rgb(0,0,0)" stroke-linecap="butt" stroke-linejoin="miter" stroke-opacity="1.0" stroke-miterlimit="10.0" stroke="rgb(0,0,0)"><path d="M 785.2206,550.0000 v -2.0000 "/></g><g stroke-width="0.9999999999999997" fill-opacity="0.0" fill="rgb(0,0,0)" stroke-linecap="butt" stroke-linejoin="miter" stroke-opacity="1.0" stroke-miterlimit="10.0" stroke="rgb(0,0,0)"><path d="M 27.5840,550.0000 v -5.0000 "/></g><g stroke-width="0.9999999999999997" fill-opacity="0.0" fill="rgb(0,0,0)" stroke-linecap="butt" stroke-linejoin="miter" stroke-opacity="1.0" stroke-miterlimit="10.0" stroke="rgb(0,0,0)"><path d="M 179.1113,550.0000 v -5.0000 "/></g><g stroke-width="0.9999999999999997" fill-opacity="0.0" fill="rgb(0,0,0)" stroke-linecap="butt" stroke-linejoin="miter" stroke-opacity="1.0" stroke-miterlimit="10.0" stroke="rgb(0,0,0)"><path d="M 330.6387,550.0000 v -5.0000 "/></g><g stroke-width="0.9999999999999997" fill-opacity="0.0" fill="rgb(0,0,0)" stroke-linecap="butt" stroke-linejoin="miter" stroke-opacity="1.0" stroke-miterlimit="10.0" stroke="rgb(0,0,0)"><path d="M 482.1660,550.0000 v -5.0000 "/></g><g stroke-width="0.9999999999999997" fill-opacity="0.0" fill="rgb(0,0,0)" stroke-linecap="butt" stroke-linejoin="miter" stroke-opacity="1.0" stroke-miterlimit="10.0" stroke="rgb(0,0,0)"><path d="M 633.6933,550.0000 v -5.0000 "/></g><g stroke-width="0.9999999999999997" fill-opacity="0.0" fill="rgb(0,0,0)" stroke-linecap="butt" stroke-linejoin="miter" stroke-opacity="1.0" stroke-miterlimit="10.0" stroke="rgb(0,0,0)"><path d="M 785.2206,550.0000 v -5.0000 "/></g><g stroke-width="0.0" fill-opacity="1.0" fill="rgb(0,0,0)" stroke-linecap="butt" stroke-linejoin="bevel" stroke-opacity="0.0" stroke-miterlimit="10.0" stroke="rgb(0,0,0)"><path d="M 25.4359,570.0000 ZM 28.0515,570.1261 c -1.0189,-0.0000 -1.5861,-0.9034 -1.5861 -0.9034c -0.5672,-0.9034 -0.5672,-2.5945 -0.5672 -2.5945c 0.0000,-1.6912 0.5672,-2.5735 0.5672 -2.5735c 0.5672,-0.8824 1.5861,-0.8824 1.5861 -0.8824c 1.0084,0.0000 1.5756,0.8824 1.5756 0.8824c 0.5672,0.8824 0.5672,2.5735 0.5672 2.5735c 0.0000,1.6912 -0.5672,2.5945 -0.5672 2.5945c -0.5672,0.9034 -1.5756,0.9034 -1.5756 0.9034ZM 28.0515,570.1261 ZM 28.0515,569.4328 c 0.2941,0.0000 0.5305,-0.1628 0.5305 -0.1628c 0.2363,-0.1628 0.4097,-0.5042 0.4097 -0.5042c 0.1733,-0.3414 0.2679,-0.8718 0.2679 -0.8718c 0.0945,-0.5305 0.0945,-1.2658 0.0945 -1.2658c 0.0000,-0.7353 -0.0945,-1.2605 -0.0945 -1.2605c -0.0945,-0.5252 -0.2679,-0.8561 -0.2679 -0.8561c -0.1733,-0.3309 -0.4097,-0.4884 -0.4097 -0.4884c -0.2363,-0.1576 -0.5305,-0.1576 -0.5305 -0.1576c -0.2941,-0.0000 -0.5357,0.1576 -0.5357 0.1576c -0.2416,0.1576 -0.4149,0.4884 -0.4149 0.4884c -0.1733,0.3309 -0.2679,0.8561 -0.2679 0.8561c -0.0945,0.5252 -0.0945,1.2605 -0.0945 1.2605c 0.0000,1.4706 0.3624,2.1376 0.3624 2.1376c 0.3624,0.6670 0.9506,0.6670 0.9506 0.6670Z"/></g><g stroke-width="0.0" fill-opacity="1.0" fill="rgb(0,0,0)" stroke-linecap="butt" stroke-linejoin="bevel" stroke-opacity="0.0" stroke-miterlimit="10.0" stroke="rgb(0,0,0)"><path d="M 176.8845,570.0000 ZM 177.5672,568.6450 c 0.2941,0.3046 0.6985,0.5357 0.6985 0.5357c 0.4044,0.2311 0.9926,0.2311 0.9926 0.2311c 0.3046,0.0000 0.5725,-0.1103 0.5725 -0.1103c 0.2679,-0.1103 0.4674,-0.3099 0.4674 -0.3099c 0.1996,-0.1996 0.3151,-0.4832 0.3151 -0.4832c 0.1155,-0.2836 0.1155,-0.6303 0.1155 -0.6303c 0.0000,-0.6933 -0.3887,-1.0819 -0.3887 -1.0819c -0.3887,-0.3887 -1.0399,-0.3887 -1.0399 -0.3887c -0.3466,-0.0000 -0.5935,0.1050 -0.5935 0.1050c -0.2468,0.1050 -0.5515,0.3046 -0.5515 0.3046l -0.4622,-0.2941 l 0.2206,-3.2248 h 3.3508 v 0.7458 h -2.5945 l -0.1786,1.9853 c 0.2416,-0.1261 0.4832,-0.1996 0.4832 -0.1996c 0.2416,-0.0735 0.5462,-0.0735 0.5462 -0.0735c 0.4307,0.0000 0.8088,0.1261 0.8088 0.1261c 0.3782,0.1261 0.6618,0.3834 0.6618 0.3834c 0.2836,0.2574 0.4464,0.6513 0.4464 0.6513c 0.1628,0.3939 0.1628,0.9401 0.1628 0.9401c 0.0000,0.5462 -0.1891,0.9664 -0.1891 0.9664c -0.1891,0.4202 -0.5042,0.7090 -0.5042 0.7090c -0.3151,0.2889 -0.7195,0.4412 -0.7195 0.4412c -0.4044,0.1523 -0.8456,0.1523 -0.8456 0.1523c -0.3992,-0.0000 -0.7300,-0.0788 -0.7300 -0.0788c -0.3309,-0.0788 -0.5987,-0.2048 -0.5987 -0.2048c -0.2679,-0.1261 -0.4832,-0.2889 -0.4832 -0.2889c -0.2153,-0.1628 -0.3834,-0.3414 -0.3834 -0.3414Z"/></g><g stroke-width="0.0" fill-opacity="1.0" fill="rgb(0,0,0)" stroke-linecap="butt" stroke-linejoin="bevel" stroke-opacity="0.0" stroke-miterlimit="10.0" stroke="rgb(0,0,0)"><path d="M 326.0641,570.0000 ZM 326.8939,569.2857 h 1.5336 v -4.9370 h -1.2185 v -0.5567 c 0.4622,-0.0840 0.8036,-0.2048 0.8036 -0.2048c 0.3414,-0.1208 0.6145,-0.2889 0.6145 -0.2889h 0.6618 v 5.9874 h 1.3866 v 0.7143 h -3.7815 v -0.7143 ZM 331.2847,570.0000 ZM 333.9002,570.1261 c -1.0189,-0.0000 -1.5861,-0.9034 -1.5861 -0.9034c -0.5672,-0.9034 -0.5672,-2.5945 -0.5672 -2.5945c 0.0000,-1.6912 0.5672,-2.5735 0.5672 -2.5735c 0.5672,-0.8824 1.5861,-0.8824 1.5861 -0.8824c 1.0084,0.0000 1.5756,0.8824 1.5756 0.8824c 0.5672,0.8824 0.5672,2.5735 0.5672 2.5735c 0.0000,1.6912 -0.5672,2.5945 -0.5672 2.5945c -0.5672,0.9034 -1.5756,0.9034 -1.5756 0.9034ZM 333.9002,570.1261 ZM 333.9002,569.4328 c 0.2941,0.0000 0.5305,-0.1628 0.5305 -0.1628c 0.2363,-0.1628 0.4097,-0.5042 0.4097 -0.5042c 0.1733,-0.3414 0.2679,-0.8718 0.2679 -0.8718c 0.0945,-0.5305 0.0945,-1.2658 0.0945 -1.2658c 0.0000,-0.7353 -0.0945,-1.2605 -0.0945 -1.2605c -0.0945,-0.5252 -0.2679,-0.8561 -0.2679 -0.8561c -0.1733,-0.3309 -0.4097,-0.4884 -0.4097 -0.4884c -0.2363,-0.1576 -0.5305,-0.1576 -0.5305 -0.1576c -0.2941,-0.0000 -0.5357,0.1576 -0.5357 0.1576c -0.2416,0.1576 -0.4149,0.4884 -0.4149 0.4884c -0.1733,0.3309 -0.2679,0.8561 -0.2679 0.8561c -0.0945,0.5252 -0.0945,1.2605 -0.0945 1.2605c 0.0000,1.4706 0.3624,2.1376 0.3624 2.1376c 0.3624,0.6670 0.9506,0.6670 0.9506 0.6670Z"/></g><g stroke-width="0.0" fill-opacity="1.0" fill="rgb(0,0,0)" stroke-linecap="butt" stroke-linejoin="bevel" stroke-opacity="0.0" stroke-miterlimit="10.0" stroke="rgb(0,0,0)"><path d="M 477.6124,570.0000 ZM 478.4422,569.2857 h 1.5336 v -4.9370 h -1.2185 v -0.5567 c 0.4622,-0.0840 0.8036,-0.2048 0.8036 -0.2048c 0.3414,-0.1208 0.6145,-0.2889 0.6145 -0.2889h 0.6618 v 5.9874 h 1.3866 v 0.7143 h -3.7815 v -0.7143 ZM 482.8330,570.0000 ZM 483.5158,568.6450 c 0.2941,0.3046 0.6985,0.5357 0.6985 0.5357c 0.4044,0.2311 0.9926,0.2311 0.9926 0.2311c 0.3046,0.0000 0.5725,-0.1103 0.5725 -0.1103c 0.2679,-0.1103 0.4674,-0.3099 0.4674 -0.3099c 0.1996,-0.1996 0.3151,-0.4832 0.3151 -0.4832c 0.1155,-0.2836 0.1155,-0.6303 0.1155 -0.6303c 0.0000,-0.6933 -0.3887,-1.0819 -0.3887 -1.0819c -0.3887,-0.3887 -1.0399,-0.3887 -1.0399 -0.3887c -0.3466,-0.0000 -0.5935,0.1050 -0.5935 0.1050c -0.2468,0.1050 -0.5515,0.3046 -0.5515 0.3046l -0.4622,-0.2941 l 0.2206,-3.2248 h 3.3508 v 0.7458 h -2.5945 l -0.1786,1.9853 c 0.2416,-0.1261 0.4832,-0.1996 0.4832 -0.1996c 0.2416,-0.0735 0.5462,-0.0735 0.5462 -0.0735c 0.4307,0.0000 0.8088,0.1261 0.8088 0.1261c 0.3782,0.1261 0.6618,0.3834 0.6618 0.3834c 0.2836,0.2574 0.4464,0.6513 0.4464 0.6513c 0.1628,0.3939 0.1628,0.9401 0.1628 0.9401c 0.0000,0.5462 -0.1891,0.9664 -0.1891 0.9664c -0.1891,0.4202 -0.5042,0.7090 -0.5042 0.7090c -0.3151,0.2889 -0.7195,0.4412 -0.7195 0.4412c -0.4044,0.1523 -0.8456,0.1523 -0.8456 0.1523c -0.3992,-0.0000 -0.7300,-0.0788 -0.7300 -0.0788c -0.3309,-0.0788 -0.5987,-0.2048 -0.5987 -0.2048c -0.2679,-0.1261 -0.4832,-0.2889 -0.4832 -0.2889c -0.2153,-0.1628 -0.3834,-0.3414 -0.3834 -0.3414Z"/></g><g stroke-width="0.0" fill-opacity="1.0" fill="rgb(0,0,0)" stroke-linecap="butt" stroke-linejoin="bevel" stroke-opacity="0.0" stroke-miterlimit="10.0" stroke="rgb(0,0,0)"><path d="M 628.8929,570.0000 ZM 629.3130,569.4853 c 0.7563,-0.7563 1.3445,-1.3655 1.3445 -1.3655c 0.5882,-0.6092 0.9874,-1.1292 0.9874 -1.1292c 0.3992,-0.5200 0.6092,-0.9559 0.6092 -0.9559c 0.2101,-0.4359 0.2101,-0.8456 0.2101 -0.8456c 0.0000,-0.5777 -0.3151,-0.9454 -0.3151 -0.9454c -0.3151,-0.3676 -0.9559,-0.3676 -0.9559 -0.3676c -0.4202,-0.0000 -0.7773,0.2363 -0.7773 0.2363c -0.3571,0.2363 -0.6513,0.5725 -0.6513 0.5725l -0.4937,-0.4937 c 0.4202,-0.4622 0.8929,-0.7405 0.8929 -0.7405c 0.4727,-0.2784 1.1345,-0.2784 1.1345 -0.2784c 0.9349,0.0000 1.4706,0.5410 1.4706 0.5410c 0.5357,0.5410 0.5357,1.4338 0.5357 1.4338c 0.0000,0.4727 -0.2048,0.9506 -0.2048 0.9506c -0.2048,0.4779 -0.5672,0.9874 -0.5672 0.9874c -0.3624,0.5095 -0.8613,1.0609 -0.8613 1.0609c -0.4989,0.5515 -1.0977,1.1712 -1.0977 1.1712c 0.2731,-0.0210 0.5672,-0.0420 0.5672 -0.0420c 0.2941,-0.0210 0.5567,-0.0210 0.5567 -0.0210h 1.9433 v 0.7458 h -4.3277 v -0.5147 ZM 634.1134,570.0000 ZM 636.7290,570.1261 c -1.0189,-0.0000 -1.5861,-0.9034 -1.5861 -0.9034c -0.5672,-0.9034 -0.5672,-2.5945 -0.5672 -2.5945c 0.0000,-1.6912 0.5672,-2.5735 0.5672 -2.5735c 0.5672,-0.8824 1.5861,-0.8824 1.5861 -0.8824c 1.0084,0.0000 1.5756,0.8824 1.5756 0.8824c 0.5672,0.8824 0.5672,2.5735 0.5672 2.5735c 0.0000,1.6912 -0.5672,2.5945 -0.5672 2.5945c -0.5672,0.9034 -1.5756,0.9034 -1.5756 0.9034ZM 636.7290,570.1261 ZM 636.7290,569.4328 c 0.2941,0.0000 0.5305,-0.1628 0.5305 -0.1628c 0.2363,-0.1628 0.4097,-0.5042 0.4097 -0.5042c 0.1733,-0.3414 0.2679,-0.8718 0.2679 -0.8718c 0.0945,-0.5305 0.0945,-1.2658 0.0945 -1.2658c 0.0000,-0.7353 -0.0945,-1.2605 -0.0945 -1.2605c -0.0945,-0.5252 -0.2679,-0.8561 -0.2679 -0.8561c -0.1733,-0.3309 -0.4097,-0.4884 -0.4097 -0.4884c -0.2363,-0.1576 -0.5305,-0.1576 -0.5305 -0.1576c -0.2941,-0.0000 -0.5357,0.1576 -0.5357 0.1576c -0.2416,0.1576 -0.4149,0.4884 -0.4149 0.4884c -0.1733,0.3309 -0.2679,0.8561 -0.2679 0.8561c -0.0945,0.5252 -0.0945,1.2605 -0.0945 1.2605c 0.0000,1.4706 0.3624,2.1376 0.3624 2.1376c 0.3624,0.6670 0.9506,0.6670 0.9506 0.6670Z"/></g><g stroke-width="0.0" fill-opacity="1.0" fill="rgb(0,0,0)" stroke-linecap="butt" stroke-linejoin="bevel" stroke-opacity="0.0" stroke-miterlimit="10.0" stroke="rgb(0,0,0)"><path d="M 780.4412,570.0000 ZM 780.8613,569.4853 c 0.7563,-0.7563 1.3445,-1.3655 1.3445 -1.3655c 0.5882,-0.6092 0.9874,-1.1292 0.9874 -1.1292c 0.3992,-0.5200 0.6092,-0.9559 0.6092 -0.9559c 0.2101,-0.4359 0.2101,-0.8456 0.2101 -0.8456c 0.0000,-0.5777 -0.3151,-0.9454 -0.3151 -0.9454c -0.3151,-0.3676 -0.9559,-0.3676 -0.9559 -0.3676c -0.4202,-0.0000 -0.7773,0.2363 -0.7773 0.2363c -0.3571,0.2363 -0.6513,0.5725 -0.6513 0.5725l -0.4937,-0.4937 c 0.4202,-0.4622 0.8929,-0.7405 0.8929 -0.7405c 0.4727,-0.2784 1.1345,-0.2784 1.1345 -0.2784c 0.9349,0.0000 1.4706,0.5410 1.4706 0.5410c 0.5357,0.5410 0.5357,1.4338 0.5357 1.4338c 0.0000,0.4727 -0.2048,0.9506 -0.2048 0.9506c -0.2048,0.4779 -0.5672,0.9874 -0.5672 0.9874c -0.3624,0.5095 -0.8613,1.0609 -0.8613 1.0609c -0.4989,0.5515 -1.0977,1.1712 -1.0977 1.1712c 0.2731,-0.0210 0.5672,-0.0420 0.5672 -0.0420c 0.2941,-0.0210 0.5567,-0.0210 0.5567 -0.0210h 1.9433 v 0.7458 h -4.3277 v -0.5147 ZM 785.6618,570.0000 ZM 786.3445,568.6450 c 0.2941,0.3046 0.6985,0.5357 0.6985 0.5357c 0.4044,0.2311 0.9926,0.2311 0.9926 0.2311c 0.3046,0.0000 0.5725,-0.1103 0.5725 -0.1103c 0.2679,-0.1103 0.4674,-0.3099 0.4674 -0.3099c 0.1996,-0.1996 0.3151,-0.4832 0.3151 -0.4832c 0.1155,-0.2836 0.1155,-0.6303 0.1155 -0.6303c 0.0000,-0.6933 -0.3887,-1.0819 -0.3887 -1.0819c -0.3887,-0.3887 -1.0399,-0.3887 -1.0399 -0.3887c -0.3466,-0.0000 -0.5935,0.1050 -0.5935 0.1050c -0.2468,0.1050 -0.5515,0.3046 -0.5515 0.3046l -0.4622,-0.2941 l 0.2206,-3.2248 h 3.3508 v 0.7458 h -2.5945 l -0.1786,1.9853 c 0.2416,-0.1261 0.4832,-0.1996 0.4832 -0.1996c 0.2416,-0.0735 0.5462,-0.0735 0.5462 -0.0735c 0.4307,0.0000 0.8088,0.1261 0.8088 0.1261c 0.3782,0.1261 0.6618,0.3834 0.6618 0.3834c 0.2836,0.2574 0.4464,0.6513 0.4464 0.6513c 0.1628,0.3939 0.1628,0.9401 0.1628 0.9401c 0.0000,0.5462 -0.1891,0.9664 -0.1891 0.9664c -0.1891,0.4202 -0.5042,0.7090 -0.5042 0.7090c -0.3151,0.2889 -0.7195,0.4412 -0.7195 0.4412c -0.4044,0.1523 -0.8456,0.1523 -0.8456 0.1523c -0.3992,-0.0000 -0.7300,-0.0788 -0.7300 -0.0788c -0.3309,-0.0788 -0.5987,-0.2048 -0.5987 -0.2048c -0.2679,-0.1261 -0.4832,-0.2889 -0.4832 -0.2889c -0.2153,-0.1628 -0.3834,-0.3414 -0.3834 -0.3414Z"/></g><g stroke-width="0.9999999999999997" fill-opacity="0.0" fill="rgb(0,0,0)" stroke-linecap="round" stroke-linejoin="round" stroke-opacity="1.0" stroke-miterlimit="10.0" stroke="rgb(0,0,255)"><path d="M 10.0000,585.0000 h 20.0000 "/></g><g stroke-width="0.0" fill-opacity="1.0" fill="rgb(0,0,0)" stroke-linecap="butt" stroke-linejoin="bevel" stroke-opacity="0.0" stroke-miterlimit="10.0" stroke="rgb(0,0,0)"><path d="M 35.0735,586.6071 ZM 38.2353,579.8319 c -0.2836,-0.1261 -0.5777,-0.1261 -0.5777 -0.1261c -0.7143,-0.0000 -0.7143,0.9874 -0.7143 0.9874v 0.8088 h 1.0819 v 0.7038 h -1.0819 v 4.4013 h -0.8613 v -4.4013 h -0.6933 v -0.6513 l 0.6933,-0.0525 v -0.8088 c 0.0000,-0.7878 0.3624,-1.2395 0.3624 -1.2395c 0.3624,-0.4517 1.1292,-0.4517 1.1292 -0.4517c 0.2416,0.0000 0.4569,0.0473 0.4569 0.0473c 0.2153,0.0473 0.3939,0.1208 0.3939 0.1208Z"/></g></svg>